<svg id="svg" version="1.1" xmlns="http://www.w3.org/2000/svg" xmlns:xlink="http://www.w3.org/1999/xlink" width="400" height="400" viewBox="0, 0, 400,400"><g id="svgg"><path id="path0" d="M0.000 200.000 L 0.000 400.000 200.000 400.000 L 400.000 400.000 400.000 200.000 L 400.000 0.000 200.000 0.000 L 0.000 0.000 0.000 200.000 M71.158 175.698 C 71.905 176.083,73.705 176.600,75.158 176.849 C 80.502 177.764,82.921 180.125,82.894 184.401 C 82.864 189.125,79.813 190.336,76.454 186.955 C 75.714 186.210,74.921 185.600,74.692 185.600 C 74.463 185.600,73.680 185.146,72.952 184.591 C 69.881 182.248,52.495 182.144,50.874 184.458 C 50.569 184.894,49.887 185.415,49.360 185.615 C 48.832 185.816,48.398 186.300,48.395 186.690 C 48.392 187.081,48.285 187.789,48.157 188.265 C 47.568 190.462,49.720 191.558,56.260 192.393 C 59.527 192.809,62.830 193.342,63.600 193.577 C 64.370 193.812,67.070 194.192,69.600 194.421 C 72.875 194.717,74.488 195.044,75.200 195.556 C 75.750 195.952,77.184 196.528,78.388 196.836 C 88.451 199.414,89.544 218.058,79.790 220.752 C 79.053 220.955,78.059 221.486,77.580 221.932 C 77.029 222.446,75.662 222.916,73.855 223.213 C 72.285 223.472,70.460 223.930,69.800 224.232 C 66.010 225.967,53.416 225.943,49.400 224.194 C 48.740 223.906,46.810 223.477,45.111 223.239 C 38.510 222.318,33.409 215.711,35.241 210.456 C 36.073 208.067,40.238 208.000,40.988 210.364 C 41.109 210.744,41.746 211.453,42.404 211.940 C 43.062 212.426,43.600 213.053,43.600 213.333 C 43.600 213.613,44.490 214.162,45.578 214.553 C 46.665 214.944,47.757 215.507,48.004 215.805 C 49.633 217.768,71.106 217.754,71.860 215.789 C 71.972 215.496,72.596 215.071,73.246 214.844 C 74.027 214.571,74.628 213.953,75.019 213.016 C 75.344 212.237,75.773 211.600,75.972 211.600 C 76.923 211.600,74.408 208.150,72.685 207.091 C 71.015 206.064,70.280 205.902,65.894 205.591 C 61.006 205.245,57.731 204.716,56.200 204.025 C 55.760 203.827,53.449 203.483,51.065 203.262 C 47.453 202.927,46.481 202.688,45.243 201.830 C 44.426 201.263,43.553 200.800,43.304 200.800 C 42.647 200.800,39.200 197.571,39.200 196.956 C 39.200 196.670,38.750 195.772,38.200 194.962 C 35.451 190.911,39.133 179.200,43.155 179.200 C 43.482 179.200,44.152 178.821,44.646 178.357 C 45.170 177.865,46.678 177.279,48.271 176.948 C 49.772 176.637,51.540 176.138,52.200 175.840 C 52.860 175.541,53.670 175.193,54.000 175.065 C 55.541 174.468,69.788 174.994,71.158 175.698 M311.400 176.310 L 313.000 177.798 313.000 183.466 C 313.000 188.716,312.934 189.223,312.100 190.351 C 311.605 191.020,311.200 191.741,311.200 191.953 C 311.200 195.520,305.243 195.560,304.199 192.000 C 304.037 191.450,303.621 190.677,303.274 190.281 C 302.057 188.896,302.082 178.809,303.306 177.528 C 303.583 177.238,304.127 176.505,304.514 175.900 C 305.678 174.082,309.232 174.294,311.400 176.310 M353.915 183.538 C 355.078 184.012,356.400 184.400,356.853 184.400 C 359.461 184.400,361.204 187.173,361.195 191.308 C 361.183 196.743,358.941 197.782,355.246 194.065 C 354.664 193.479,353.460 192.505,352.572 191.900 L 350.957 190.800 343.528 190.800 C 334.360 190.800,333.894 190.880,333.387 192.532 C 332.470 195.520,334.395 196.783,340.553 197.233 C 342.999 197.411,346.259 197.927,347.799 198.379 C 349.338 198.830,351.330 199.200,352.226 199.200 C 354.343 199.200,357.857 200.250,358.131 200.965 C 358.249 201.273,358.853 201.646,359.473 201.795 C 360.783 202.110,363.600 205.282,363.600 206.441 C 363.600 206.874,363.876 207.650,364.214 208.165 C 365.034 209.417,365.053 212.411,364.250 214.020 C 363.892 214.737,363.600 215.598,363.600 215.935 C 363.600 217.128,362.001 219.827,360.908 220.478 C 360.299 220.841,359.392 221.523,358.892 221.992 C 358.372 222.482,357.008 223.026,355.692 223.269 C 354.432 223.502,352.942 223.930,352.382 224.221 C 349.074 225.935,334.576 225.782,332.200 224.008 C 331.980 223.843,330.456 223.590,328.813 223.444 C 325.842 223.180,325.289 222.954,323.000 221.066 C 321.863 220.128,321.793 219.896,321.659 216.630 C 321.432 211.102,322.583 209.227,325.026 211.149 C 325.621 211.617,326.341 212.000,326.627 212.000 C 326.912 212.000,327.530 212.540,328.000 213.200 C 328.470 213.860,329.171 214.400,329.559 214.400 C 329.946 214.400,331.135 214.978,332.201 215.684 C 335.806 218.071,350.257 217.887,352.951 215.419 C 356.822 211.874,352.019 209.364,339.400 208.338 C 334.514 207.941,333.525 207.738,331.644 206.742 C 330.458 206.114,329.198 205.600,328.844 205.600 C 328.490 205.600,327.492 204.970,326.627 204.200 C 325.762 203.430,324.911 202.800,324.735 202.800 C 324.559 202.800,324.306 202.363,324.172 201.829 C 324.037 201.295,323.689 200.766,323.398 200.654 C 321.757 200.025,321.891 192.282,323.580 190.135 C 324.031 189.561,324.400 188.859,324.400 188.573 C 324.400 188.288,324.985 187.643,325.700 187.140 C 326.415 186.638,327.253 185.980,327.562 185.680 C 328.280 184.982,329.804 184.401,330.926 184.398 C 331.407 184.396,332.340 184.101,333.000 183.741 C 336.018 182.096,350.044 181.960,353.915 183.538 M243.485 183.220 C 244.585 183.603,245.600 184.976,245.600 186.080 C 245.600 186.323,244.565 187.536,243.300 188.776 C 242.035 190.016,240.746 191.516,240.436 192.109 C 240.126 192.702,239.562 193.285,239.184 193.405 C 238.805 193.525,238.392 194.113,238.265 194.712 C 238.139 195.310,237.488 196.430,236.819 197.200 C 236.149 197.970,235.601 198.799,235.601 199.042 C 235.600 199.284,235.164 199.954,234.631 200.529 C 234.098 201.104,233.552 201.920,233.418 202.343 C 233.284 202.765,232.728 203.593,232.182 204.182 C 231.636 204.771,230.828 205.961,230.387 206.826 C 229.945 207.692,229.416 208.400,229.211 208.400 C 229.005 208.400,228.495 209.165,228.077 210.100 C 227.658 211.035,226.930 212.143,226.458 212.562 C 225.986 212.981,225.600 213.553,225.600 213.833 C 225.600 214.113,225.174 214.677,224.654 215.086 C 224.134 215.495,223.583 216.224,223.430 216.705 C 223.278 217.186,222.738 217.906,222.230 218.305 C 221.723 218.704,221.183 219.424,221.030 219.905 C 220.452 221.727,216.740 224.505,215.600 223.969 C 215.270 223.813,214.528 223.501,213.951 223.275 C 213.308 223.023,212.565 222.167,212.031 221.064 C 211.552 220.075,210.871 219.025,210.518 218.732 C 210.165 218.440,209.632 217.615,209.333 216.900 C 209.034 216.185,208.640 215.600,208.458 215.600 C 208.276 215.600,207.656 214.735,207.081 213.678 C 206.505 212.620,205.667 211.422,205.217 211.016 C 204.768 210.609,204.400 209.948,204.400 209.547 C 204.400 209.146,203.968 208.536,203.440 208.190 C 202.913 207.844,202.258 207.022,201.985 206.363 C 201.712 205.704,200.974 204.614,200.344 203.940 C 199.715 203.267,199.200 202.445,199.200 202.115 C 199.200 201.785,198.750 201.161,198.200 200.729 C 197.650 200.296,197.200 199.710,197.200 199.426 C 197.200 199.141,196.752 198.461,196.204 197.913 C 195.656 197.365,194.916 196.219,194.560 195.365 C 194.203 194.512,193.596 193.592,193.211 193.322 C 192.825 193.053,192.286 192.291,192.012 191.629 C 191.738 190.968,191.173 190.318,190.757 190.186 C 190.341 190.054,190.000 189.784,190.000 189.587 C 190.000 189.389,189.460 188.613,188.800 187.861 C 186.249 184.955,187.505 183.603,192.727 183.634 C 194.866 183.646,198.154 183.532,200.034 183.379 C 205.001 182.976,208.109 184.753,206.677 187.178 C 205.816 188.635,205.790 191.327,206.629 192.024 C 206.975 192.311,207.588 193.189,207.991 193.973 C 208.393 194.758,209.190 195.940,209.761 196.600 C 210.332 197.260,210.799 198.121,210.800 198.513 C 210.800 198.904,211.062 199.326,211.382 199.448 C 212.023 199.695,213.600 202.167,213.600 202.927 C 213.600 203.191,213.958 203.631,214.395 203.904 C 214.832 204.177,215.435 204.985,215.736 205.700 C 216.696 207.981,218.511 208.276,219.782 206.356 C 220.348 205.500,220.975 204.800,221.175 204.800 C 221.374 204.800,221.750 204.157,222.009 203.372 C 222.268 202.587,222.733 201.847,223.041 201.729 C 223.349 201.611,223.936 200.769,224.346 199.857 C 224.756 198.946,225.566 197.764,226.146 197.230 C 226.726 196.697,227.200 195.926,227.200 195.518 C 227.200 195.109,227.480 194.667,227.822 194.536 C 229.183 194.014,230.630 189.457,229.978 187.743 C 228.758 184.532,231.725 182.963,239.240 182.847 C 240.912 182.821,242.823 182.989,243.485 183.220 M288.305 183.717 C 293.203 185.040,293.198 191.033,288.298 192.994 C 286.198 193.834,285.827 193.775,284.187 192.335 C 282.192 190.583,268.945 189.695,265.355 191.073 C 264.281 191.485,264.590 198.742,265.700 199.154 C 267.890 199.969,278.657 199.456,279.985 198.474 C 280.875 197.816,281.654 197.589,282.715 197.677 L 284.200 197.800 284.483 200.400 C 285.261 207.550,282.772 209.494,275.739 207.229 C 274.406 206.800,271.855 206.417,269.807 206.338 L 266.214 206.200 265.506 207.695 C 264.604 209.600,264.428 215.908,265.262 216.465 C 265.558 216.662,269.940 216.773,275.000 216.712 C 283.988 216.603,285.152 216.448,286.400 215.200 C 287.220 214.380,289.393 213.141,290.346 212.951 C 294.359 212.148,292.931 222.463,288.891 223.458 C 288.291 223.606,287.440 223.950,287.000 224.224 C 285.240 225.317,250.933 225.185,250.251 224.082 C 249.403 222.711,249.583 220.848,250.658 219.851 C 253.095 217.591,253.131 189.640,250.700 187.387 C 249.400 186.182,249.337 185.614,250.364 184.344 C 251.602 182.814,283.037 182.294,288.305 183.717 M132.800 183.986 C 135.619 184.626,137.086 185.969,137.424 188.217 C 138.108 192.783,134.498 194.499,129.535 191.967 C 128.389 191.382,127.191 191.200,124.490 191.200 L 120.948 191.200 120.274 192.614 C 119.690 193.839,119.602 195.532,119.618 205.314 C 119.636 216.947,119.836 218.671,121.362 220.358 C 122.267 221.358,122.153 222.577,121.035 223.878 L 120.069 225.000 113.935 225.000 C 106.250 225.000,105.775 224.878,105.136 222.744 C 104.679 221.218,104.707 221.043,105.516 220.388 C 105.996 219.999,106.572 219.201,106.795 218.614 C 107.223 217.487,107.370 193.676,106.958 192.140 C 106.534 190.559,100.003 190.409,98.448 191.944 C 94.252 196.085,88.578 192.161,91.168 186.908 C 92.305 184.604,92.460 184.495,95.518 183.848 C 98.576 183.201,129.857 183.317,132.800 183.986 M181.000 183.609 C 185.393 184.354,185.737 184.700,185.516 188.142 C 185.187 193.265,182.023 194.996,178.630 191.910 C 177.339 190.737,159.831 189.778,158.584 190.813 C 157.382 191.810,157.778 199.129,159.050 199.448 C 161.745 200.125,169.970 199.330,171.540 198.241 C 174.615 196.111,177.154 197.726,177.467 202.013 C 177.890 207.820,175.042 209.449,168.400 207.199 C 165.066 206.069,158.922 205.824,158.400 206.800 C 157.891 207.750,157.873 216.113,158.379 216.620 C 159.225 217.469,177.997 216.693,178.736 215.779 C 180.849 213.167,184.484 212.335,185.244 214.290 C 186.678 217.975,184.933 222.380,181.400 223.996 C 178.329 225.401,143.600 225.246,143.600 223.828 C 143.600 223.748,143.969 221.792,144.421 219.481 C 145.546 213.720,145.453 191.026,144.291 187.931 C 143.507 185.843,143.847 184.368,145.257 183.741 C 146.526 183.176,177.765 183.061,181.000 183.609 M19.034 193.739 C 25.311 199.965,17.102 211.956,10.314 206.474 C 6.791 203.629,7.000 204.057,7.000 199.686 L 7.000 195.706 8.704 194.002 C 11.725 190.981,16.140 190.869,19.034 193.739 M388.329 191.980 C 389.058 192.189,390.407 193.112,391.327 194.032 L 393.000 195.705 393.114 199.152 C 393.250 203.246,392.925 204.027,390.299 205.912 C 388.004 207.559,385.783 207.962,384.037 207.048 C 383.357 206.691,382.253 206.113,381.585 205.763 C 380.060 204.964,379.350 203.856,379.010 201.742 C 377.984 195.355,382.736 190.376,388.329 191.980 " stroke="none" fill="#fbfbfb" fill-rule="evenodd"></path><path id="path1" d="M59.800 177.462 C 51.951 178.087,49.489 178.513,47.286 179.631 C 46.029 180.268,44.769 180.792,44.487 180.795 C 41.270 180.827,38.757 189.797,40.535 194.901 C 41.654 198.115,47.179 201.003,53.400 201.626 C 69.049 203.191,73.503 204.186,76.148 206.707 C 78.953 209.381,78.981 212.593,76.221 215.223 C 73.839 217.494,73.073 217.968,71.121 218.378 C 70.174 218.577,68.320 219.043,67.000 219.413 C 64.008 220.252,54.365 220.058,51.800 219.107 C 50.920 218.781,49.358 218.389,48.330 218.237 C 46.527 217.970,45.092 217.121,42.076 214.535 C 39.961 212.723,39.640 212.400,39.234 211.680 C 38.497 210.374,37.886 211.756,38.071 214.312 C 38.290 217.336,39.414 218.824,42.400 220.037 C 43.610 220.529,44.780 221.063,45.000 221.225 C 47.734 223.236,72.022 222.899,74.673 220.814 C 75.162 220.429,76.381 219.885,77.381 219.605 C 78.382 219.325,79.200 218.978,79.200 218.834 C 79.200 218.690,79.730 218.259,80.378 217.876 C 82.813 216.438,84.151 213.782,84.328 210.035 C 84.482 206.791,83.938 203.600,83.232 203.600 C 83.048 203.600,82.670 203.052,82.392 202.381 C 82.115 201.711,81.345 200.882,80.681 200.539 C 80.018 200.196,79.123 199.586,78.692 199.185 C 78.261 198.783,77.164 198.336,76.254 198.190 C 75.344 198.045,72.800 197.489,70.600 196.955 C 68.400 196.421,63.582 195.720,59.893 195.399 C 54.951 194.967,52.713 194.598,51.394 193.997 C 50.409 193.548,49.159 193.012,48.616 192.806 C 43.768 190.963,46.085 182.732,51.720 181.780 C 52.599 181.631,53.967 181.224,54.759 180.874 C 56.870 179.943,65.814 179.953,68.800 180.890 C 70.010 181.270,71.762 181.771,72.694 182.004 C 73.626 182.237,74.861 182.866,75.439 183.401 C 76.017 183.936,76.829 184.482,77.245 184.614 C 77.660 184.746,78.003 184.977,78.006 185.127 C 78.027 186.048,78.741 186.515,79.264 185.949 C 80.189 184.949,80.798 183.646,80.443 183.427 C 80.256 183.311,80.001 182.705,79.876 182.079 C 79.499 180.195,75.380 178.571,69.600 178.028 C 62.897 177.397,61.578 177.321,59.800 177.462 M305.817 177.981 C 305.191 178.673,305.131 179.417,305.291 184.481 C 305.498 191.004,305.619 191.453,307.273 191.816 C 309.110 192.219,309.308 191.836,311.079 184.444 C 312.265 179.493,308.563 174.947,305.817 177.981 M333.733 185.595 C 331.222 186.125,327.124 188.487,326.100 189.994 C 324.398 192.498,324.999 201.243,326.912 201.823 C 327.401 201.971,328.160 202.409,328.600 202.796 C 329.940 203.975,330.983 204.365,335.072 205.215 C 342.162 206.689,342.959 206.819,347.000 207.172 C 350.839 207.508,351.720 207.738,354.054 209.020 C 357.066 210.675,357.175 215.487,354.244 217.408 C 352.464 218.574,345.979 219.985,342.400 219.985 C 338.263 219.985,329.200 217.815,329.200 216.825 C 329.200 216.672,328.435 216.124,327.500 215.606 C 326.565 215.089,325.354 214.323,324.810 213.904 L 323.819 213.143 323.504 214.271 C 322.255 218.744,325.299 221.226,333.000 222.014 C 347.320 223.479,355.558 222.489,359.400 218.841 C 361.804 216.559,361.800 216.571,361.800 211.440 L 361.800 206.600 360.052 204.915 C 359.090 203.988,357.650 203.023,356.852 202.771 C 356.053 202.518,354.981 202.048,354.469 201.726 C 353.895 201.365,350.756 200.854,346.269 200.390 C 335.993 199.327,332.758 198.252,331.186 195.374 L 330.217 193.600 331.193 191.814 C 331.746 190.800,332.608 189.864,333.184 189.650 C 337.098 188.198,343.667 187.816,348.800 188.741 C 353.420 189.573,354.482 190.084,357.811 193.074 C 359.048 194.185,359.381 193.706,359.341 190.875 C 359.306 188.473,357.948 186.863,355.200 185.966 C 353.468 185.401,336.074 185.100,333.733 185.595 M97.200 185.800 C 96.870 185.881,95.961 186.050,95.179 186.177 C 93.380 186.468,92.526 188.296,93.237 190.334 C 93.755 191.821,93.763 191.823,95.138 190.845 C 99.301 187.887,109.176 188.719,109.802 192.081 C 110.544 196.062,109.814 217.371,108.868 219.348 C 107.681 221.829,107.871 221.993,112.242 222.270 C 116.696 222.552,119.601 221.924,118.695 220.874 C 117.364 219.332,117.200 217.547,117.200 204.563 L 117.200 191.645 118.159 190.530 C 119.655 188.790,131.347 188.717,133.437 190.434 C 133.722 190.669,134.030 190.452,134.322 189.812 C 134.973 188.382,134.243 186.560,132.875 186.202 C 131.772 185.914,98.281 185.536,97.200 185.800 M146.937 185.999 L 146.074 186.347 146.937 188.073 C 148.646 191.493,148.332 217.500,146.549 220.222 C 146.069 220.954,146.003 221.363,146.315 221.675 C 146.834 222.194,179.567 222.145,180.938 221.623 C 182.340 221.091,183.037 218.622,182.164 217.288 C 181.736 216.636,181.396 216.412,181.294 216.717 C 180.783 218.250,178.856 218.570,168.800 218.788 C 154.869 219.089,155.200 219.257,155.200 211.925 C 155.200 206.213,155.440 205.393,157.345 204.597 C 159.058 203.881,170.309 204.442,172.444 205.350 C 173.859 205.952,173.897 205.944,174.344 204.963 C 175.406 202.633,174.624 199.769,173.092 200.380 C 170.573 201.384,167.809 202.003,165.725 202.029 C 164.446 202.045,162.410 202.205,161.200 202.384 C 159.306 202.665,158.889 202.604,158.200 201.947 C 157.760 201.527,156.905 200.814,156.300 200.362 C 155.217 199.554,155.200 199.475,155.200 195.155 L 155.200 190.769 156.755 189.102 L 158.310 187.435 165.040 187.545 C 168.741 187.606,172.497 187.811,173.385 188.001 C 175.500 188.452,178.238 189.139,180.073 189.678 C 182.084 190.268,183.081 189.378,182.538 187.477 C 182.188 186.250,182.073 186.190,179.587 185.947 C 175.631 185.559,147.917 185.604,146.937 185.999 M191.500 185.876 C 191.115 185.976,190.800 186.135,190.800 186.228 C 190.800 186.540,193.782 190.587,194.697 191.518 C 195.194 192.023,195.600 192.698,195.600 193.018 C 195.600 193.338,195.950 193.950,196.379 194.379 C 196.807 194.807,197.463 195.752,197.837 196.479 C 198.211 197.205,199.030 198.426,199.658 199.191 C 200.286 199.956,200.800 200.802,200.800 201.071 C 200.800 201.340,201.043 201.704,201.340 201.880 C 201.637 202.056,203.000 203.854,204.370 205.876 C 205.739 207.897,207.116 209.764,207.429 210.024 C 207.743 210.285,208.000 210.721,208.000 210.993 C 208.000 211.265,208.628 212.278,209.396 213.244 C 210.164 214.210,210.794 215.194,210.796 215.430 C 210.798 215.667,211.250 216.283,211.800 216.800 C 212.350 217.317,212.801 217.933,212.801 218.170 C 212.803 218.741,215.594 222.000,216.081 222.000 C 216.609 222.000,219.546 218.799,219.826 217.919 C 219.951 217.524,220.216 217.200,220.415 217.200 C 220.788 217.200,222.185 215.198,227.855 206.538 C 228.985 204.812,230.258 203.021,230.683 202.557 C 231.108 202.094,231.687 201.155,231.971 200.470 C 232.254 199.786,232.751 199.007,233.074 198.738 C 233.398 198.470,234.101 197.384,234.638 196.325 C 235.174 195.266,235.800 194.400,236.028 194.400 C 236.255 194.400,236.630 193.860,236.860 193.200 C 237.090 192.540,237.422 192.000,237.597 192.000 C 237.773 192.000,238.467 191.145,239.139 190.100 C 239.812 189.055,240.743 187.876,241.208 187.481 C 242.669 186.239,241.990 185.809,238.368 185.682 C 233.561 185.514,233.210 185.650,233.153 187.708 C 233.089 189.981,232.738 191.314,231.905 192.452 C 230.148 194.847,229.172 196.310,228.435 197.647 C 227.997 198.442,227.220 199.612,226.709 200.247 C 226.198 200.881,225.529 201.895,225.222 202.500 C 224.916 203.105,224.519 203.600,224.341 203.600 C 224.162 203.600,223.662 204.294,223.230 205.142 C 222.797 205.990,222.082 207.115,221.640 207.642 C 221.198 208.169,220.423 209.095,219.918 209.701 C 218.414 211.504,216.311 210.912,214.741 208.243 C 213.382 205.933,212.036 203.905,210.812 202.324 C 210.354 201.733,209.729 200.649,209.423 199.916 C 209.117 199.183,208.491 198.245,208.033 197.830 C 207.575 197.415,207.200 196.862,207.200 196.600 C 207.200 196.338,206.821 195.781,206.357 195.362 C 204.693 193.856,203.825 191.575,203.835 188.726 C 203.843 186.363,203.749 186.027,203.022 185.832 C 202.056 185.572,192.522 185.609,191.500 185.876 M253.483 186.128 C 253.372 186.418,253.648 187.633,254.096 188.828 C 254.851 190.841,254.913 191.934,254.936 203.800 L 254.961 216.600 253.858 218.963 C 252.190 222.532,251.183 222.347,270.689 222.054 C 289.778 221.767,289.360 221.844,289.360 218.622 C 289.360 216.875,288.899 216.376,288.186 217.352 C 287.443 218.368,283.510 218.752,273.600 218.776 C 261.982 218.805,261.775 218.678,262.074 211.704 C 262.398 204.146,262.956 203.805,273.925 204.460 C 281.968 204.941,281.999 204.934,281.676 202.739 L 281.494 201.497 279.047 201.790 C 273.888 202.407,266.311 202.442,265.636 201.851 C 265.286 201.545,264.593 201.171,264.096 201.019 C 261.856 200.336,261.037 191.785,263.000 189.586 C 265.842 186.402,281.772 186.733,285.865 190.062 C 286.165 190.306,286.848 190.224,287.790 189.830 C 290.041 188.889,289.787 186.348,287.400 185.928 C 284.219 185.368,253.706 185.548,253.483 186.128 M12.800 194.000 C 12.800 194.220,12.569 194.400,12.287 194.400 C 9.006 194.400,7.430 200.082,9.881 203.073 L 11.363 204.881 14.115 204.726 C 18.409 204.483,20.222 202.012,19.342 197.608 C 18.929 195.543,12.800 192.163,12.800 194.000 M384.183 194.345 C 378.700 197.689,379.917 204.800,385.972 204.800 C 388.561 204.800,388.481 204.846,390.955 201.955 C 393.812 198.614,387.963 192.040,384.183 194.345 " stroke="none" fill="#1a1819" fill-rule="evenodd"></path><path id="path2" d="M54.000 175.065 C 53.670 175.193,52.860 175.541,52.200 175.840 C 51.540 176.138,49.772 176.637,48.271 176.948 C 46.678 177.279,45.170 177.865,44.646 178.357 C 44.152 178.821,43.482 179.200,43.155 179.200 C 39.133 179.200,35.451 190.911,38.200 194.962 C 38.750 195.772,39.200 196.670,39.200 196.956 C 39.200 197.571,42.647 200.800,43.304 200.800 C 43.553 200.800,44.426 201.263,45.243 201.830 C 46.481 202.688,47.453 202.927,51.065 203.262 C 53.449 203.483,55.760 203.827,56.200 204.025 C 57.731 204.716,61.006 205.245,65.894 205.591 C 70.280 205.902,71.015 206.064,72.685 207.091 C 74.408 208.150,76.923 211.600,75.972 211.600 C 75.773 211.600,75.344 212.237,75.019 213.016 C 74.628 213.953,74.027 214.571,73.246 214.844 C 72.596 215.071,71.972 215.496,71.860 215.789 C 71.106 217.754,49.633 217.768,48.004 215.805 C 47.757 215.507,46.665 214.944,45.578 214.553 C 44.490 214.162,43.600 213.613,43.600 213.333 C 43.600 213.053,43.062 212.426,42.404 211.940 C 41.746 211.453,41.109 210.744,40.988 210.364 C 40.238 208.000,36.073 208.067,35.241 210.456 C 33.409 215.711,38.510 222.318,45.111 223.239 C 46.810 223.477,48.740 223.906,49.400 224.194 C 53.416 225.943,66.010 225.967,69.800 224.232 C 70.460 223.930,72.285 223.472,73.855 223.213 C 75.662 222.916,77.029 222.446,77.580 221.932 C 78.059 221.486,79.053 220.955,79.790 220.752 C 89.544 218.058,88.451 199.414,78.388 196.836 C 77.184 196.528,75.750 195.952,75.200 195.556 C 74.488 195.044,72.875 194.717,69.600 194.421 C 67.070 194.192,64.370 193.812,63.600 193.577 C 62.830 193.342,59.527 192.809,56.260 192.393 C 49.720 191.558,47.568 190.462,48.157 188.265 C 48.285 187.789,48.392 187.081,48.395 186.690 C 48.398 186.300,48.832 185.816,49.360 185.615 C 49.887 185.415,50.569 184.894,50.874 184.458 C 52.495 182.144,69.881 182.248,72.952 184.591 C 73.680 185.146,74.463 185.600,74.692 185.600 C 74.921 185.600,75.714 186.210,76.454 186.955 C 79.813 190.336,82.864 189.125,82.894 184.401 C 82.921 180.125,80.502 177.764,75.158 176.849 C 73.705 176.600,71.905 176.083,71.158 175.698 C 69.788 174.994,55.541 174.468,54.000 175.065 M304.514 175.900 C 304.127 176.505,303.583 177.238,303.306 177.528 C 302.082 178.809,302.057 188.896,303.274 190.281 C 303.621 190.677,304.037 191.450,304.199 192.000 C 305.243 195.560,311.200 195.520,311.200 191.953 C 311.200 191.741,311.605 191.020,312.100 190.351 C 312.934 189.223,313.000 188.716,313.000 183.466 L 313.000 177.798 311.400 176.310 C 309.232 174.294,305.678 174.082,304.514 175.900 M69.400 176.573 C 71.160 176.920,73.607 177.401,74.837 177.643 C 80.042 178.666,83.220 182.756,81.761 186.556 C 81.314 187.721,78.883 187.822,77.674 186.727 C 74.233 183.611,71.958 182.657,66.316 181.963 C 57.420 180.870,49.526 182.703,47.809 186.260 C 45.553 190.932,49.687 193.334,61.800 194.388 C 69.570 195.065,72.101 195.593,78.732 197.924 C 80.669 198.605,83.553 201.200,84.651 203.250 C 85.679 205.170,85.720 213.216,84.710 215.060 C 82.852 218.456,76.582 221.981,70.567 223.012 C 68.605 223.348,66.099 223.816,64.997 224.052 C 58.857 225.367,43.833 222.908,39.450 219.871 C 37.263 218.356,35.376 211.866,36.767 210.649 C 38.327 209.284,38.947 209.490,41.413 212.198 C 42.717 213.629,43.916 214.800,44.078 214.800 C 44.240 214.800,45.193 215.320,46.196 215.957 C 51.488 219.312,69.248 219.119,73.830 215.656 C 80.414 210.678,77.113 206.002,66.000 204.563 C 63.690 204.264,60.900 203.846,59.800 203.634 C 58.700 203.422,55.820 203.046,53.400 202.797 C 43.710 201.801,38.286 197.283,38.273 190.200 C 38.261 183.488,42.386 179.088,50.316 177.350 C 58.840 175.482,63.000 175.313,69.400 176.573 M310.600 177.000 L 312.200 178.369 312.200 182.685 C 312.200 193.467,305.999 198.067,304.192 188.625 C 302.265 178.551,305.518 172.649,310.600 177.000 M335.600 182.766 C 334.830 182.943,333.660 183.381,333.000 183.741 C 332.340 184.101,331.407 184.396,330.926 184.398 C 329.804 184.401,328.280 184.982,327.562 185.680 C 327.253 185.980,326.415 186.638,325.700 187.140 C 324.985 187.643,324.400 188.288,324.400 188.573 C 324.400 188.859,324.031 189.561,323.580 190.135 C 321.891 192.282,321.757 200.025,323.398 200.654 C 323.689 200.766,324.037 201.295,324.172 201.829 C 324.306 202.363,324.559 202.800,324.735 202.800 C 324.911 202.800,325.762 203.430,326.627 204.200 C 327.492 204.970,328.490 205.600,328.844 205.600 C 329.198 205.600,330.458 206.114,331.644 206.742 C 333.525 207.738,334.514 207.941,339.400 208.338 C 345.274 208.816,353.417 210.670,354.055 211.675 C 355.439 213.858,352.807 216.607,348.936 217.022 C 342.384 217.723,334.305 217.077,332.201 215.684 C 331.135 214.978,329.946 214.400,329.559 214.400 C 329.171 214.400,328.470 213.860,328.000 213.200 C 327.530 212.540,326.912 212.000,326.627 212.000 C 326.341 212.000,325.621 211.617,325.026 211.149 C 322.583 209.227,321.432 211.102,321.659 216.630 C 321.793 219.896,321.863 220.128,323.000 221.066 C 325.289 222.954,325.842 223.180,328.813 223.444 C 330.456 223.590,331.980 223.843,332.200 224.008 C 334.576 225.782,349.074 225.935,352.382 224.221 C 352.942 223.930,354.432 223.502,355.692 223.269 C 357.008 223.026,358.372 222.482,358.892 221.992 C 359.392 221.523,360.299 220.841,360.908 220.478 C 362.001 219.827,363.600 217.128,363.600 215.935 C 363.600 215.598,363.892 214.737,364.250 214.020 C 365.053 212.411,365.034 209.417,364.214 208.165 C 363.876 207.650,363.600 206.874,363.600 206.441 C 363.600 205.282,360.783 202.110,359.473 201.795 C 358.853 201.646,358.249 201.273,358.131 200.965 C 357.857 200.250,354.343 199.200,352.226 199.200 C 351.330 199.200,349.338 198.830,347.799 198.379 C 346.259 197.927,342.999 197.411,340.553 197.233 C 334.395 196.783,332.470 195.520,333.387 192.532 C 333.894 190.880,334.360 190.800,343.528 190.800 L 350.957 190.800 352.572 191.900 C 353.460 192.505,354.664 193.479,355.246 194.065 C 358.941 197.782,361.183 196.743,361.195 191.308 C 361.204 187.173,359.461 184.400,356.853 184.400 C 356.400 184.400,355.078 184.012,353.915 183.538 C 351.625 182.605,338.684 182.059,335.600 182.766 M234.361 183.205 C 230.538 183.852,229.075 185.367,229.978 187.743 C 230.630 189.457,229.183 194.014,227.822 194.536 C 227.480 194.667,227.200 195.109,227.200 195.518 C 227.200 195.926,226.726 196.697,226.146 197.230 C 225.566 197.764,224.756 198.946,224.346 199.857 C 223.936 200.769,223.349 201.611,223.041 201.729 C 222.733 201.847,222.268 202.587,222.009 203.372 C 221.750 204.157,221.374 204.800,221.175 204.800 C 220.975 204.800,220.348 205.500,219.782 206.356 C 218.511 208.276,216.696 207.981,215.736 205.700 C 215.435 204.985,214.832 204.177,214.395 203.904 C 213.958 203.631,213.600 203.191,213.600 202.927 C 213.600 202.167,212.023 199.695,211.382 199.448 C 211.062 199.326,210.800 198.904,210.800 198.513 C 210.799 198.121,210.332 197.260,209.761 196.600 C 209.190 195.940,208.393 194.758,207.991 193.973 C 207.588 193.189,206.975 192.311,206.629 192.024 C 205.790 191.327,205.816 188.635,206.677 187.178 C 208.109 184.753,205.001 182.976,200.034 183.379 C 198.154 183.532,194.866 183.646,192.727 183.634 C 187.505 183.603,186.249 184.955,188.800 187.861 C 189.460 188.613,190.000 189.389,190.000 189.587 C 190.000 189.784,190.341 190.054,190.757 190.186 C 191.173 190.318,191.738 190.968,192.012 191.629 C 192.286 192.291,192.825 193.053,193.211 193.322 C 193.596 193.592,194.203 194.512,194.560 195.365 C 194.916 196.219,195.656 197.365,196.204 197.913 C 196.752 198.461,197.200 199.141,197.200 199.426 C 197.200 199.710,197.650 200.296,198.200 200.729 C 198.750 201.161,199.200 201.785,199.200 202.115 C 199.200 202.445,199.715 203.267,200.344 203.940 C 200.974 204.614,201.712 205.704,201.985 206.363 C 202.258 207.022,202.913 207.844,203.440 208.190 C 203.968 208.536,204.400 209.146,204.400 209.547 C 204.400 209.948,204.768 210.609,205.217 211.016 C 205.667 211.422,206.505 212.620,207.081 213.678 C 207.656 214.735,208.276 215.600,208.458 215.600 C 208.640 215.600,209.034 216.185,209.333 216.900 C 209.632 217.615,210.165 218.440,210.518 218.732 C 210.871 219.025,211.552 220.075,212.031 221.064 C 212.565 222.167,213.308 223.023,213.951 223.275 C 214.528 223.501,215.270 223.813,215.600 223.969 C 216.740 224.505,220.452 221.727,221.030 219.905 C 221.183 219.424,221.723 218.704,222.230 218.305 C 222.738 217.906,223.278 217.186,223.430 216.705 C 223.583 216.224,224.134 215.495,224.654 215.086 C 225.174 214.677,225.600 214.113,225.600 213.833 C 225.600 213.553,225.986 212.981,226.458 212.562 C 226.930 212.143,227.658 211.035,228.077 210.100 C 228.495 209.165,229.005 208.400,229.211 208.400 C 229.416 208.400,229.945 207.692,230.387 206.826 C 230.828 205.961,231.636 204.771,232.182 204.182 C 232.728 203.593,233.284 202.765,233.418 202.343 C 233.552 201.920,234.098 201.104,234.631 200.529 C 235.164 199.954,235.600 199.284,235.601 199.042 C 235.601 198.799,236.149 197.970,236.819 197.200 C 237.488 196.430,238.139 195.310,238.265 194.712 C 238.392 194.113,238.805 193.525,239.184 193.405 C 239.562 193.285,240.126 192.702,240.436 192.109 C 240.746 191.516,242.035 190.016,243.300 188.776 C 245.759 186.366,245.845 186.175,245.145 184.639 C 244.353 182.902,239.763 182.291,234.361 183.205 M258.664 183.147 C 249.591 183.452,247.598 184.513,250.700 187.387 C 253.131 189.640,253.095 217.591,250.658 219.851 C 249.583 220.848,249.403 222.711,250.251 224.082 C 250.933 225.185,285.240 225.317,287.000 224.224 C 287.440 223.950,288.291 223.606,288.891 223.458 C 292.931 222.463,294.359 212.148,290.346 212.951 C 289.393 213.141,287.220 214.380,286.400 215.200 C 285.152 216.448,283.988 216.603,275.000 216.712 C 269.940 216.773,265.558 216.662,265.262 216.465 C 264.428 215.908,264.604 209.600,265.506 207.695 L 266.214 206.200 269.807 206.338 C 271.855 206.417,274.406 206.800,275.739 207.229 C 282.772 209.494,285.261 207.550,284.483 200.400 L 284.200 197.800 282.715 197.677 C 281.654 197.589,280.875 197.816,279.985 198.474 C 278.657 199.456,267.890 199.969,265.700 199.154 C 264.590 198.742,264.281 191.485,265.355 191.073 C 268.945 189.695,282.192 190.583,284.187 192.335 C 287.204 194.984,292.000 191.860,292.000 187.246 C 292.000 183.266,284.091 182.293,258.664 183.147 M95.518 183.848 C 92.460 184.495,92.305 184.604,91.168 186.908 C 88.578 192.161,94.252 196.085,98.448 191.944 C 100.003 190.409,106.534 190.559,106.958 192.140 C 107.370 193.676,107.223 217.487,106.795 218.614 C 106.572 219.201,105.996 219.999,105.516 220.388 C 104.707 221.043,104.679 221.218,105.136 222.744 C 105.775 224.878,106.250 225.000,113.935 225.000 L 120.069 225.000 121.035 223.878 C 122.153 222.577,122.267 221.358,121.362 220.358 C 119.836 218.671,119.636 216.947,119.618 205.314 C 119.602 195.532,119.690 193.839,120.274 192.614 L 120.948 191.200 124.490 191.200 C 127.191 191.200,128.389 191.382,129.535 191.967 C 134.498 194.499,138.108 192.783,137.424 188.217 C 137.086 185.969,135.619 184.626,132.800 183.986 C 129.857 183.317,98.576 183.201,95.518 183.848 M145.257 183.741 C 143.847 184.368,143.507 185.843,144.291 187.931 C 145.453 191.026,145.546 213.720,144.421 219.481 C 143.969 221.792,143.600 223.748,143.600 223.828 C 143.600 225.246,178.329 225.401,181.400 223.996 C 184.933 222.380,186.678 217.975,185.244 214.290 C 184.484 212.335,180.849 213.167,178.736 215.779 C 177.997 216.693,159.225 217.469,158.379 216.620 C 157.873 216.113,157.891 207.750,158.400 206.800 C 158.922 205.824,165.066 206.069,168.400 207.199 C 175.042 209.449,177.890 207.820,177.467 202.013 C 177.154 197.726,174.615 196.111,171.540 198.241 C 169.970 199.330,161.745 200.125,159.050 199.448 C 157.778 199.129,157.382 191.810,158.584 190.813 C 159.831 189.778,177.339 190.737,178.630 191.910 C 182.023 194.996,185.187 193.265,185.516 188.142 C 185.737 184.700,185.393 184.354,181.000 183.609 C 177.765 183.061,146.526 183.176,145.257 183.741 M352.925 184.430 C 358.291 185.166,360.427 186.971,360.499 190.834 C 360.591 195.765,358.738 196.309,355.035 192.439 C 352.809 190.111,339.768 188.738,334.600 190.287 C 332.558 190.899,331.624 193.126,332.617 195.015 C 333.818 197.300,334.914 197.600,349.400 199.593 C 360.411 201.109,364.669 205.469,363.210 213.735 C 362.227 219.303,359.158 221.892,352.000 223.192 C 350.570 223.452,348.536 223.830,347.480 224.032 C 344.730 224.559,340.703 224.474,336.946 223.810 C 335.156 223.493,332.117 223.038,330.191 222.799 C 324.290 222.066,322.000 219.939,322.000 215.194 C 322.000 211.696,323.993 211.104,327.030 213.699 C 333.096 218.882,350.098 220.183,353.980 215.762 C 357.242 212.047,353.896 208.806,346.181 208.207 C 338.480 207.610,328.982 205.459,328.035 204.099 C 327.906 203.913,327.198 203.341,326.463 202.827 C 322.150 199.813,322.796 190.054,327.513 186.964 C 332.278 183.842,341.747 182.897,352.925 184.430 M134.057 185.160 C 135.665 185.965,136.510 188.438,135.777 190.192 C 134.900 192.292,134.264 192.443,131.045 191.319 C 128.598 190.464,127.668 190.350,124.075 190.466 C 117.987 190.663,118.400 189.604,118.400 205.027 L 118.400 217.565 119.576 219.559 L 120.752 221.553 119.947 222.577 C 118.817 224.013,108.771 224.178,107.275 222.784 C 106.188 221.771,106.189 221.602,107.300 219.723 C 108.614 217.500,108.723 191.922,107.424 190.969 C 105.891 189.846,99.884 190.208,96.938 191.600 C 93.930 193.021,93.554 193.054,92.585 191.984 C 90.595 189.785,92.141 185.223,95.040 184.740 C 98.189 184.214,132.916 184.588,134.057 185.160 M182.753 185.028 C 184.658 185.790,185.190 187.493,184.235 189.778 C 183.335 191.931,182.019 192.351,179.739 191.212 C 177.628 190.158,174.591 189.793,165.000 189.441 L 158.600 189.207 157.674 190.397 C 156.057 192.478,155.909 198.356,157.444 199.563 C 159.157 200.911,169.161 200.683,172.131 199.229 L 174.061 198.283 174.874 199.096 C 176.607 200.829,176.459 205.690,174.633 207.025 C 173.889 207.569,172.106 207.285,170.200 206.318 C 168.539 205.475,158.873 205.004,157.942 205.720 C 156.871 206.544,156.342 209.163,156.475 212.979 C 156.652 218.053,156.235 217.897,168.877 217.618 L 178.754 217.400 180.024 216.100 C 180.877 215.228,181.674 214.800,182.447 214.800 C 183.081 214.800,183.735 214.786,183.900 214.770 C 185.309 214.628,184.648 219.568,182.995 221.533 C 181.415 223.410,179.989 223.554,162.200 223.630 L 145.800 223.700 145.268 222.628 C 144.806 221.699,144.846 221.191,145.568 218.816 C 146.881 214.491,146.832 192.401,145.500 188.544 L 144.600 185.939 145.544 185.169 C 146.862 184.096,180.107 183.969,182.753 185.028 M204.982 185.327 C 205.620 185.963,205.652 186.249,205.238 187.631 C 204.594 189.781,205.032 191.677,206.641 193.700 C 207.384 194.635,207.994 195.594,207.996 195.830 C 207.998 196.067,208.450 196.683,209.000 197.200 C 209.550 197.717,210.000 198.312,210.000 198.522 C 210.000 198.732,210.630 199.781,211.400 200.853 C 212.170 201.925,212.800 202.936,212.800 203.101 C 212.801 203.265,213.215 203.882,213.722 204.470 C 214.228 205.059,214.981 206.170,215.396 206.940 C 216.107 208.261,217.444 209.221,218.519 209.183 C 218.783 209.174,219.810 208.001,220.800 206.577 C 221.790 205.153,223.050 203.361,223.600 202.597 C 224.150 201.832,225.187 200.349,225.905 199.303 C 226.622 198.256,227.656 196.770,228.202 196.000 C 228.747 195.230,229.462 194.027,229.791 193.327 C 230.119 192.627,230.564 191.946,230.779 191.813 C 231.636 191.283,232.004 188.691,231.396 187.472 C 230.310 185.295,232.221 184.400,237.954 184.400 C 243.643 184.400,244.955 185.201,242.956 187.452 C 241.654 188.918,238.850 192.533,237.753 194.158 C 237.287 194.849,236.612 195.658,236.253 195.956 C 235.894 196.254,235.600 196.681,235.600 196.904 C 235.600 197.128,234.025 199.636,232.100 202.479 C 230.175 205.321,228.302 208.153,227.938 208.771 C 227.573 209.389,226.673 210.715,225.938 211.718 C 225.202 212.720,224.150 214.194,223.600 214.994 C 217.480 223.892,215.182 224.904,212.415 219.920 C 211.889 218.974,211.332 218.110,211.175 218.000 C 211.018 217.890,210.555 217.248,210.145 216.573 C 208.809 214.372,206.275 210.605,205.994 210.400 C 205.843 210.290,205.198 209.411,204.560 208.447 C 203.922 207.482,202.950 206.021,202.400 205.200 C 201.850 204.379,200.883 202.932,200.252 201.985 C 199.620 201.038,198.936 200.069,198.731 199.831 C 198.526 199.594,197.474 198.050,196.392 196.400 C 194.189 193.042,192.494 190.699,191.045 189.013 C 188.954 186.579,188.859 185.377,190.711 184.764 C 192.495 184.174,204.292 184.639,204.982 185.327 M289.718 185.309 C 291.273 186.328,291.221 188.507,289.596 190.478 C 288.056 192.346,286.285 192.807,285.062 191.658 C 283.104 189.819,281.453 189.503,273.600 189.461 C 264.153 189.412,263.727 189.585,263.530 193.568 C 263.297 198.288,263.475 199.050,264.983 199.765 C 266.724 200.591,276.441 200.655,279.506 199.860 C 282.863 198.990,284.765 203.813,282.111 206.467 L 281.222 207.356 278.111 206.485 C 274.373 205.439,266.940 204.883,265.683 205.555 C 263.141 206.916,262.333 216.094,264.663 217.156 C 265.715 217.635,280.911 217.789,284.097 217.352 C 285.253 217.194,286.393 216.688,287.253 215.953 C 289.977 213.625,292.439 214.629,291.563 217.710 C 289.922 223.477,289.618 223.557,268.945 223.618 L 252.618 223.667 251.725 222.547 C 250.991 221.626,250.921 221.318,251.333 220.814 C 254.071 217.461,254.674 193.093,252.153 187.672 C 250.667 184.476,251.022 184.417,271.218 184.515 C 287.134 184.593,288.730 184.661,289.718 185.309 M11.704 191.973 C 10.992 192.151,9.642 193.064,8.704 194.002 L 7.000 195.706 7.000 199.686 C 7.000 204.057,6.791 203.629,10.314 206.474 C 13.568 209.102,19.738 206.600,21.039 202.125 C 22.889 195.761,17.965 190.406,11.704 191.973 M384.032 191.891 C 378.838 192.869,376.988 203.354,381.585 205.763 C 382.253 206.113,383.357 206.691,384.037 207.048 C 385.783 207.962,388.004 207.559,390.299 205.912 C 392.925 204.027,393.250 203.246,393.114 199.152 L 393.000 195.705 391.327 194.032 C 389.151 191.857,387.221 191.291,384.032 191.891 M18.152 194.234 C 22.706 198.125,21.165 204.418,15.274 205.986 C 9.074 207.635,4.814 199.496,9.413 194.787 C 12.156 191.977,15.279 191.780,18.152 194.234 M390.246 194.449 C 393.360 197.498,393.400 201.843,390.338 204.664 C 387.396 207.375,381.532 206.143,380.150 202.524 C 377.524 195.649,385.201 189.509,390.246 194.449 " stroke="none" fill="#a9a8a9" fill-rule="evenodd"></path><path id="path3" d="M56.079 176.168 C 54.252 176.465,52.632 176.842,52.479 177.006 C 52.325 177.169,52.830 177.182,53.600 177.035 C 56.643 176.455,64.919 176.310,67.866 176.785 C 71.521 177.374,72.241 177.076,68.720 176.431 C 64.672 175.690,59.652 175.585,56.079 176.168 M305.415 176.549 C 303.746 178.217,303.097 183.103,303.972 187.400 C 304.202 188.526,304.287 187.494,304.262 183.912 C 304.210 176.572,306.399 174.336,310.450 177.592 C 311.302 178.277,312.000 178.679,312.000 178.486 C 312.000 176.449,306.988 174.975,305.415 176.549 M49.200 177.600 C 48.408 177.854,48.367 177.920,49.000 177.920 C 49.440 177.920,50.250 177.776,50.800 177.600 C 51.592 177.346,51.633 177.280,51.000 177.280 C 50.560 177.280,49.750 177.424,49.200 177.600 M72.800 177.600 C 73.350 177.776,74.250 177.920,74.800 177.920 L 75.800 177.920 74.800 177.600 C 74.250 177.424,73.350 177.280,72.800 177.280 L 71.800 177.280 72.800 177.600 M45.400 179.010 C 43.308 180.299,44.203 180.294,46.459 179.005 C 47.417 178.457,47.930 178.013,47.600 178.017 C 47.270 178.022,46.280 178.468,45.400 179.010 M77.406 178.844 C 80.372 180.413,81.600 182.087,81.600 184.557 C 81.600 186.892,79.249 188.001,77.769 186.365 C 75.806 184.197,71.379 181.952,69.250 182.046 C 68.452 182.082,68.392 182.134,69.000 182.265 C 72.605 183.041,74.917 184.230,77.674 186.727 C 80.649 189.422,83.282 185.823,81.336 181.721 C 80.679 180.337,77.607 178.023,76.406 178.008 C 76.079 178.003,76.529 178.380,77.406 178.844 M312.142 182.600 C 312.141 184.580,312.208 185.440,312.292 184.512 C 312.376 183.584,312.377 181.964,312.295 180.912 C 312.212 179.860,312.143 180.620,312.142 182.600 M41.531 181.507 C 40.021 183.041,38.663 186.123,38.204 189.055 C 37.950 190.680,38.726 194.712,39.094 193.680 C 39.197 193.393,39.076 192.667,38.827 192.066 C 38.478 191.223,38.509 190.333,38.963 188.177 C 39.823 184.089,40.262 183.162,42.123 181.517 C 43.045 180.701,43.620 180.029,43.400 180.024 C 43.180 180.018,42.339 180.685,41.531 181.507 M57.000 181.557 C 56.120 181.691,58.280 181.802,61.800 181.804 C 65.580 181.806,67.463 181.696,66.400 181.534 C 64.248 181.206,59.229 181.218,57.000 181.557 M52.200 182.400 L 51.400 182.744 52.200 182.725 C 52.640 182.714,53.540 182.568,54.200 182.400 L 55.400 182.095 54.200 182.075 C 53.540 182.065,52.640 182.211,52.200 182.400 M48.881 184.415 C 47.956 185.303,47.201 186.338,47.202 186.715 C 47.204 187.152,47.427 186.975,47.816 186.228 C 48.152 185.584,48.736 184.833,49.114 184.561 C 50.862 183.298,51.368 182.824,50.981 182.813 C 50.750 182.806,49.805 183.527,48.881 184.415 M337.200 183.975 C 336.210 184.115,338.910 184.234,343.200 184.240 C 348.054 184.246,350.169 184.142,348.800 183.965 C 346.137 183.619,339.676 183.625,337.200 183.975 M104.727 184.700 C 109.417 184.764,116.977 184.764,121.527 184.699 C 126.077 184.635,122.240 184.583,113.000 184.583 C 103.760 184.583,100.037 184.636,104.727 184.700 M145.544 185.169 L 144.600 185.939 145.500 188.544 C 146.662 191.907,146.896 214.894,145.800 218.000 C 145.017 220.220,145.038 220.914,145.843 219.400 C 147.481 216.322,147.552 193.119,145.937 188.690 C 144.441 184.586,143.459 184.800,163.813 184.800 C 183.435 184.800,183.692 184.833,184.179 187.427 C 184.329 188.227,184.542 188.792,184.652 188.682 C 185.418 187.915,184.223 185.616,182.753 185.028 C 180.107 183.969,146.862 184.096,145.544 185.169 M190.807 184.696 C 188.854 185.463,188.913 186.531,191.045 189.013 C 192.370 190.555,194.128 192.960,195.860 195.600 C 197.626 198.290,198.310 199.034,197.449 197.325 C 197.095 196.624,196.622 195.937,196.397 195.798 C 196.172 195.659,195.605 194.794,195.136 193.874 C 194.667 192.955,194.064 192.022,193.796 191.801 C 192.866 191.035,190.000 186.924,190.000 186.356 C 190.000 186.042,190.495 185.478,191.100 185.103 C 192.168 184.441,192.011 184.223,190.807 184.696 M197.913 184.695 C 199.076 184.776,200.876 184.776,201.913 184.693 C 202.951 184.611,202.000 184.545,199.800 184.546 C 197.600 184.547,196.751 184.614,197.913 184.695 M232.548 184.976 C 230.881 185.702,230.705 186.086,231.399 187.479 C 232.067 188.816,231.701 190.784,230.548 192.058 C 230.176 192.469,229.970 192.903,230.090 193.023 C 230.988 193.922,232.430 189.166,231.881 187.113 C 231.405 185.327,233.067 184.748,238.264 184.887 C 244.516 185.053,244.506 184.967,239.006 191.674 C 238.702 192.044,238.130 192.854,237.736 193.474 C 237.341 194.093,236.924 194.690,236.809 194.800 C 235.959 195.613,235.439 196.570,236.153 196.007 C 236.567 195.681,237.287 194.849,237.753 194.158 C 238.850 192.533,241.654 188.918,242.956 187.452 C 244.040 186.231,243.895 185.152,242.578 184.647 C 241.338 184.171,233.832 184.417,232.548 184.976 M252.891 184.816 C 251.698 185.295,251.465 186.004,252.031 187.431 C 252.298 188.103,252.576 188.382,252.685 188.087 C 252.790 187.804,252.649 187.300,252.372 186.966 C 250.868 185.155,252.022 185.015,270.314 184.792 L 287.400 184.583 270.600 184.517 C 261.227 184.480,253.398 184.612,252.891 184.816 M352.100 184.676 C 352.485 184.776,353.115 184.776,353.500 184.676 C 353.885 184.575,353.570 184.493,352.800 184.493 C 352.030 184.493,351.715 184.575,352.100 184.676 M92.829 185.854 C 92.373 186.434,92.015 187.199,92.032 187.554 C 92.050 187.910,92.302 187.661,92.592 187.000 C 92.967 186.147,93.565 185.664,94.660 185.331 L 96.200 184.861 94.929 184.831 C 94.010 184.809,93.429 185.092,92.829 185.854 M132.569 185.248 C 135.219 185.870,136.248 187.869,135.209 190.378 C 134.603 191.842,134.034 192.062,132.565 191.401 C 130.060 190.273,128.533 190.000,124.720 190.000 C 117.606 190.000,117.922 189.246,118.090 205.800 L 118.212 217.800 118.306 205.144 C 118.421 189.590,118.000 190.662,124.075 190.466 C 127.668 190.350,128.598 190.464,131.045 191.319 C 134.264 192.443,134.900 192.292,135.777 190.192 C 136.879 187.557,134.929 184.734,132.081 184.840 C 131.200 184.873,131.290 184.948,132.569 185.248 M204.528 185.520 C 205.064 186.113,205.105 186.509,204.761 187.758 C 204.530 188.592,204.420 189.353,204.516 189.449 C 204.611 189.545,204.916 188.816,205.192 187.830 C 205.623 186.291,205.606 185.949,205.075 185.418 C 204.210 184.553,203.733 184.642,204.528 185.520 M288.200 185.089 C 291.156 185.816,290.391 190.787,287.166 191.811 C 286.700 191.959,285.913 191.683,285.106 191.089 C 281.634 188.534,267.037 187.878,264.240 190.152 C 262.107 191.885,262.308 198.668,264.532 200.024 C 266.011 200.925,276.875 201.163,279.776 200.358 C 282.163 199.695,283.390 201.799,282.388 204.836 C 281.832 206.521,280.223 206.976,278.353 205.975 C 277.916 205.741,277.163 205.610,276.679 205.684 C 276.129 205.767,276.820 206.101,278.523 206.574 L 281.246 207.331 282.123 206.455 C 284.766 203.812,282.852 198.992,279.506 199.860 C 276.441 200.655,266.724 200.591,264.983 199.765 C 263.475 199.050,263.297 198.288,263.530 193.568 C 263.727 189.585,264.153 189.412,273.600 189.461 C 281.453 189.503,283.104 189.819,285.062 191.658 C 286.285 192.807,288.056 192.346,289.596 190.478 C 291.693 187.934,290.896 184.693,288.211 184.846 C 287.409 184.892,287.409 184.895,288.200 185.089 M330.575 185.330 C 327.428 186.537,323.617 190.150,324.529 191.062 C 324.619 191.152,324.922 190.671,325.203 189.993 C 325.781 188.599,328.432 186.625,331.163 185.556 C 332.173 185.161,332.730 184.843,332.400 184.849 C 332.070 184.856,331.249 185.072,330.575 185.330 M355.735 185.289 C 357.971 185.882,359.989 188.048,360.042 189.913 C 360.197 195.351,359.610 195.772,356.031 192.794 C 353.726 190.875,352.098 189.967,351.074 190.028 C 350.813 190.044,351.298 190.312,352.152 190.625 C 353.006 190.938,354.465 191.895,355.394 192.752 C 359.231 196.289,360.592 195.777,360.499 190.834 C 360.441 187.722,357.823 184.739,355.241 184.841 C 354.390 184.875,354.480 184.957,355.735 185.289 M311.265 188.080 C 309.515 193.858,306.356 194.799,304.744 190.023 C 304.455 189.165,304.432 189.222,304.604 190.374 C 305.004 193.053,307.706 194.391,309.435 192.767 C 310.375 191.884,312.187 187.560,311.934 186.802 C 311.853 186.559,311.552 187.134,311.265 188.080 M46.846 188.353 C 46.754 190.249,50.061 193.672,51.040 192.694 C 51.157 192.576,50.652 192.281,49.917 192.039 C 48.617 191.610,47.485 190.084,47.069 188.200 C 46.920 187.524,46.886 187.547,46.846 188.353 M91.842 189.800 C 92.293 192.993,93.263 193.336,96.938 191.600 C 99.171 190.545,99.910 190.400,103.062 190.400 C 108.650 190.400,108.200 189.114,108.200 205.069 C 108.200 214.220,108.301 217.499,108.513 215.200 C 109.154 208.242,108.698 191.791,107.838 190.841 C 106.524 189.390,100.117 189.613,96.662 191.230 C 93.538 192.691,92.842 192.492,92.110 189.929 L 91.616 188.200 91.842 189.800 M157.447 189.951 C 156.416 191.027,156.312 191.430,156.108 195.130 L 155.887 199.143 157.243 199.990 C 159.226 201.228,169.199 201.045,172.096 199.717 C 174.832 198.464,175.950 199.819,175.497 203.840 C 175.165 206.786,174.373 207.339,171.855 206.381 C 169.378 205.440,168.552 205.389,170.198 206.280 C 172.033 207.273,173.872 207.582,174.633 207.025 C 176.459 205.690,176.607 200.829,174.874 199.096 L 174.061 198.283 172.131 199.229 C 169.161 200.683,159.157 200.911,157.444 199.563 C 155.910 198.356,156.057 192.486,157.674 190.386 L 158.600 189.183 164.000 189.400 C 166.970 189.519,171.110 189.696,173.200 189.792 C 175.830 189.914,176.507 189.866,175.400 189.636 C 174.520 189.454,170.372 189.187,166.182 189.045 L 158.564 188.785 157.447 189.951 M253.125 191.400 C 253.492 195.142,253.477 214.078,253.105 216.600 C 252.858 218.271,252.885 218.436,253.269 217.600 C 254.317 215.319,254.266 193.408,253.204 189.800 C 252.973 189.015,252.945 189.567,253.125 191.400 M182.891 190.493 L 181.624 191.761 180.057 190.880 C 179.196 190.396,178.156 190.014,177.746 190.032 C 177.190 190.055,177.153 190.117,177.600 190.273 C 177.930 190.388,178.904 190.836,179.764 191.268 C 181.627 192.204,182.929 191.985,183.849 190.581 C 184.825 189.093,184.337 189.048,182.891 190.493 M337.200 189.559 C 336.430 189.698,338.950 189.816,342.800 189.821 C 346.973 189.826,349.073 189.715,348.000 189.545 C 345.822 189.199,339.138 189.208,337.200 189.559 M332.876 190.919 C 330.404 193.551,332.846 198.077,336.687 197.982 C 337.079 197.973,336.529 197.658,335.465 197.282 C 333.978 196.758,333.333 196.248,332.674 195.078 L 331.817 193.556 332.609 192.093 C 333.066 191.248,333.822 190.514,334.400 190.355 C 335.252 190.121,335.277 190.074,334.570 190.040 C 334.113 190.018,333.351 190.414,332.876 190.919 M204.834 190.881 C 204.795 191.667,205.608 193.600,205.978 193.600 C 206.115 193.600,206.554 194.152,206.953 194.828 C 207.352 195.503,207.780 195.953,207.906 195.828 C 208.031 195.702,207.544 194.867,206.824 193.970 C 206.104 193.074,205.370 191.859,205.192 191.271 C 205.012 190.673,204.854 190.501,204.834 190.881 M323.852 192.500 C 322.997 195.691,324.069 201.016,325.845 202.399 C 326.563 202.957,326.568 202.947,325.955 202.193 C 324.516 200.425,323.872 197.730,324.137 194.591 C 324.392 191.570,324.294 190.850,323.852 192.500 M9.715 194.537 C 7.785 196.361,7.066 199.018,7.758 201.774 C 8.035 202.879,10.249 205.600,10.870 205.600 C 11.083 205.600,10.626 205.005,9.856 204.279 C 6.477 201.092,7.598 195.363,12.000 193.319 C 12.769 192.961,12.833 192.848,12.277 192.827 C 11.879 192.812,10.726 193.582,9.715 194.537 M16.600 193.547 C 17.260 193.956,18.295 194.757,18.900 195.326 C 19.505 195.896,20.000 196.229,20.000 196.066 C 20.000 195.598,16.506 192.800,15.924 192.801 C 15.636 192.802,15.940 193.138,16.600 193.547 M53.600 193.583 C 54.810 194.006,56.610 194.346,57.600 194.339 C 59.241 194.329,59.152 194.282,56.600 193.808 C 55.060 193.522,53.260 193.182,52.600 193.052 C 51.940 192.922,52.390 193.161,53.600 193.583 M381.900 194.648 C 380.775 195.741,380.006 196.843,380.016 197.347 C 380.029 198.055,380.123 197.996,380.569 197.000 C 381.130 195.745,383.370 193.454,384.400 193.081 C 384.933 192.887,384.933 192.860,384.400 192.832 C 384.070 192.815,382.945 193.632,381.900 194.648 M388.200 193.273 C 388.640 193.520,389.675 194.401,390.500 195.230 C 391.325 196.059,392.000 196.623,392.000 196.484 C 392.000 195.937,388.597 192.801,388.017 192.812 C 387.564 192.821,387.613 192.944,388.200 193.273 M228.961 194.753 C 228.500 195.329,227.911 196.250,227.653 196.800 C 227.258 197.641,227.264 197.680,227.692 197.046 C 227.971 196.632,228.627 195.769,229.150 195.130 C 229.672 194.490,230.032 193.908,229.950 193.836 C 229.867 193.764,229.422 194.177,228.961 194.753 M61.305 194.687 C 61.914 194.779,62.814 194.777,63.305 194.682 C 63.797 194.587,63.300 194.511,62.200 194.514 C 61.100 194.517,60.697 194.595,61.305 194.687 M66.200 195.200 C 66.860 195.368,68.030 195.505,68.800 195.505 L 70.200 195.505 69.000 195.200 C 68.340 195.032,67.170 194.895,66.400 194.895 L 65.000 194.895 66.200 195.200 M72.000 196.173 C 74.997 197.124,75.953 197.279,74.402 196.563 C 73.634 196.208,72.374 195.847,71.602 195.760 C 70.319 195.616,70.353 195.651,72.000 196.173 M40.000 196.682 C 40.000 197.075,43.579 200.160,43.780 199.941 C 43.851 199.864,43.030 199.020,41.955 198.067 C 40.880 197.114,40.000 196.491,40.000 196.682 M208.819 197.495 C 209.327 198.207,209.836 198.697,209.950 198.583 C 210.064 198.469,209.649 197.886,209.026 197.288 L 207.895 196.200 208.819 197.495 M20.160 199.262 C 20.182 200.724,20.335 201.838,20.500 201.737 C 20.886 201.500,20.838 198.442,20.432 197.401 C 20.239 196.906,20.135 197.613,20.160 199.262 M231.989 201.899 C 227.903 207.991,227.787 208.179,228.287 207.870 C 228.837 207.530,235.732 197.198,235.538 197.005 C 235.450 196.917,233.853 199.119,231.989 201.899 M76.600 197.600 C 77.796 198.114,78.795 198.114,78.000 197.600 C 77.670 197.387,77.040 197.222,76.600 197.234 L 75.800 197.256 76.600 197.600 M392.063 199.329 C 392.004 203.455,389.838 205.669,385.846 205.684 C 384.039 205.691,383.939 205.732,384.993 206.036 C 389.136 207.232,393.975 201.993,392.456 197.956 C 392.171 197.199,392.089 197.485,392.063 199.329 M80.207 199.078 C 82.558 200.668,83.901 202.315,84.711 204.600 C 85.039 205.525,85.144 205.610,85.168 204.969 C 85.236 203.191,80.662 198.000,79.028 198.000 C 78.801 198.000,79.331 198.485,80.207 199.078 M225.696 199.610 C 225.093 200.495,224.150 201.842,223.600 202.604 C 223.050 203.365,221.790 205.153,220.800 206.577 C 219.810 208.001,218.783 209.174,218.519 209.183 C 217.521 209.218,216.072 208.275,215.629 207.304 C 215.377 206.750,215.072 206.394,214.953 206.514 C 214.567 206.900,216.111 208.862,217.096 209.236 C 218.780 209.877,219.103 209.660,221.461 206.300 C 222.736 204.485,223.919 202.820,224.090 202.600 C 225.038 201.386,227.182 198.000,227.003 198.000 C 226.887 198.000,226.299 198.724,225.696 199.610 M340.200 198.578 C 342.954 199.233,345.485 199.396,343.459 198.789 C 342.832 198.601,341.302 198.349,340.059 198.228 L 337.800 198.008 340.200 198.578 M379.709 200.000 C 379.709 200.990,379.787 201.395,379.882 200.900 C 379.978 200.405,379.978 199.595,379.882 199.100 C 379.787 198.605,379.709 199.010,379.709 200.000 M198.000 198.889 C 198.000 198.992,198.467 199.599,199.038 200.238 C 199.731 201.013,199.938 201.123,199.660 200.567 C 199.263 199.773,198.000 198.496,198.000 198.889 M210.000 199.355 C 210.000 199.826,212.508 203.226,212.708 203.026 C 212.803 202.930,212.378 202.166,211.762 201.326 C 210.260 199.276,210.000 198.985,210.000 199.355 M346.400 199.620 C 347.390 199.797,348.830 199.932,349.600 199.920 C 350.897 199.901,350.867 199.876,349.200 199.580 C 348.210 199.403,346.770 199.268,346.000 199.280 C 344.703 199.299,344.733 199.324,346.400 199.620 M46.139 201.046 C 47.206 201.601,48.158 201.976,48.255 201.879 C 48.444 201.690,45.012 199.988,44.504 200.019 C 44.337 200.029,45.073 200.491,46.139 201.046 M353.019 200.374 C 356.559 201.222,360.953 204.050,362.142 206.245 C 362.507 206.919,362.775 207.137,362.784 206.768 C 362.833 204.836,355.518 199.924,352.766 200.041 C 351.933 200.076,351.968 200.122,353.019 200.374 M200.340 202.233 C 200.737 203.027,202.000 204.304,202.000 203.911 C 202.000 203.808,201.533 203.201,200.962 202.562 C 200.269 201.787,200.062 201.677,200.340 202.233 M50.400 202.399 C 52.250 202.750,55.464 202.919,55.167 202.649 C 55.075 202.565,53.560 202.398,51.800 202.277 C 49.394 202.112,49.047 202.142,50.400 202.399 M380.016 202.081 C 379.948 203.272,382.853 206.081,383.491 205.442 C 383.592 205.341,383.122 204.973,382.447 204.624 C 381.772 204.275,380.953 203.497,380.626 202.895 C 380.299 202.293,380.025 201.927,380.016 202.081 M18.791 203.541 C 18.237 204.124,17.427 204.814,16.991 205.076 C 16.556 205.339,16.395 205.564,16.633 205.576 C 17.181 205.606,20.270 202.949,20.000 202.681 C 19.890 202.572,19.346 202.959,18.791 203.541 M58.800 203.448 C 64.524 204.493,67.255 204.848,68.325 204.684 C 69.230 204.546,69.178 204.509,68.000 204.454 C 67.230 204.418,64.635 204.031,62.232 203.594 C 59.830 203.157,57.400 202.823,56.832 202.850 C 56.265 202.878,57.150 203.147,58.800 203.448 M327.762 203.800 C 328.401 204.350,329.111 204.800,329.340 204.800 C 329.568 204.800,329.145 204.350,328.400 203.800 C 326.652 202.510,326.262 202.511,327.762 203.800 M212.800 203.830 C 212.800 204.067,213.250 204.683,213.800 205.200 C 215.086 206.408,215.087 206.058,213.800 204.562 C 213.251 203.923,212.801 203.594,212.800 203.830 M202.659 205.450 C 203.801 207.376,205.689 210.177,205.994 210.400 C 206.145 210.510,206.913 211.615,207.701 212.856 C 208.489 214.097,209.362 215.253,209.642 215.426 C 209.922 215.599,209.604 214.944,208.936 213.970 C 208.268 212.997,207.420 211.750,207.051 211.200 C 205.008 208.152,203.537 206.088,202.776 205.200 L 201.918 204.200 202.659 205.450 M69.800 205.010 C 70.020 205.091,70.944 205.348,71.853 205.581 C 73.679 206.050,76.141 208.074,76.754 209.610 C 77.101 210.479,77.152 210.500,77.175 209.783 C 77.208 208.720,74.195 205.836,72.440 205.252 C 71.250 204.856,68.758 204.627,69.800 205.010 M157.412 205.755 C 155.334 207.417,155.332 216.585,157.409 217.531 C 158.994 218.253,159.144 218.085,157.700 217.204 L 156.400 216.412 156.400 212.666 C 156.400 205.592,156.841 205.158,163.800 205.381 C 167.614 205.503,168.360 205.459,166.600 205.217 C 161.664 204.538,158.717 204.710,157.412 205.755 M265.321 205.279 C 262.546 206.620,261.826 216.069,264.398 217.399 C 265.624 218.033,283.377 218.269,284.887 217.672 C 285.265 217.522,281.157 217.462,275.759 217.537 C 262.807 217.717,262.828 217.728,263.440 211.141 C 263.950 205.649,264.770 205.031,271.157 205.325 C 274.305 205.470,275.156 205.431,273.800 205.204 C 270.986 204.734,266.365 204.775,265.321 205.279 M12.463 206.068 C 13.118 206.298,14.039 206.300,14.863 206.072 C 16.072 205.737,15.971 205.701,13.800 205.697 C 11.822 205.694,11.587 205.759,12.463 206.068 M332.400 205.772 C 332.400 206.069,336.680 207.202,337.662 207.164 C 338.178 207.144,337.340 206.788,335.800 206.373 C 332.836 205.574,332.400 205.497,332.400 205.772 M85.337 209.400 C 85.339 211.160,85.409 211.830,85.493 210.889 C 85.578 209.949,85.577 208.509,85.491 207.689 C 85.405 206.870,85.336 207.640,85.337 209.400 M340.400 207.620 C 341.390 207.797,342.920 207.930,343.800 207.917 C 345.359 207.894,345.348 207.885,343.400 207.582 C 340.536 207.135,337.869 207.170,340.400 207.620 M347.100 208.282 C 347.595 208.378,348.405 208.378,348.900 208.282 C 349.395 208.187,348.990 208.109,348.000 208.109 C 347.010 208.109,346.605 208.187,347.100 208.282 M362.907 211.400 C 362.915 213.771,363.020 214.590,363.213 213.800 C 363.611 212.167,363.614 209.572,363.219 208.600 C 363.017 208.106,362.898 209.175,362.907 211.400 M226.986 209.477 C 226.589 210.083,226.117 210.764,225.937 210.990 C 224.576 212.698,222.746 215.344,222.216 216.369 C 221.866 217.046,221.443 217.600,221.276 217.600 C 221.109 217.600,220.675 218.095,220.312 218.700 C 217.461 223.451,214.725 223.641,212.396 219.250 C 211.446 217.458,210.021 215.652,210.009 216.225 C 210.004 216.458,210.324 216.998,210.720 217.425 C 211.116 217.851,211.874 218.974,212.405 219.920 C 215.182 224.871,217.540 223.852,223.505 215.124 C 224.002 214.396,225.239 212.667,226.253 211.281 C 227.267 209.896,228.009 208.675,227.902 208.569 C 227.796 208.462,227.383 208.871,226.986 209.477 M352.171 209.603 C 353.474 210.251,354.703 211.010,354.901 211.291 C 355.175 211.678,355.222 211.659,355.100 211.209 C 354.896 210.458,351.659 208.469,350.600 208.444 C 350.160 208.434,350.867 208.955,352.171 209.603 M38.000 209.884 C 36.416 210.466,36.124 211.130,36.438 213.438 C 36.850 216.477,37.263 216.723,36.952 213.746 C 36.715 211.478,36.756 211.321,37.759 210.664 L 38.815 209.972 40.900 212.233 C 42.913 214.416,46.717 217.200,47.686 217.200 C 47.945 217.200,47.305 216.660,46.264 216.000 C 45.224 215.340,44.240 214.800,44.078 214.800 C 43.916 214.800,42.718 213.630,41.415 212.200 C 40.112 210.770,38.946 209.614,38.823 209.632 C 38.700 209.649,38.330 209.762,38.000 209.884 M322.832 212.650 C 321.951 213.770,321.745 216.304,322.414 217.800 C 322.658 218.345,322.708 217.962,322.571 216.600 C 322.122 212.138,323.340 211.788,328.193 214.984 C 330.102 216.241,331.754 217.180,331.863 217.070 C 331.973 216.960,331.194 216.375,330.131 215.770 C 329.069 215.164,327.750 214.291,327.200 213.829 C 324.720 211.744,323.751 211.482,322.832 212.650 M76.617 212.745 C 76.364 213.545,74.692 215.175,72.791 216.479 C 72.246 216.852,72.000 217.167,72.244 217.179 C 73.306 217.229,77.636 212.703,77.069 212.136 C 76.961 212.028,76.758 212.302,76.617 212.745 M355.260 213.086 C 355.222 213.893,354.738 214.899,353.959 215.786 C 353.276 216.564,352.913 217.200,353.153 217.200 C 353.988 217.200,355.669 214.132,355.490 212.935 C 355.323 211.824,355.319 211.827,355.260 213.086 M84.846 213.440 C 84.779 214.669,82.787 217.227,80.861 218.559 C 79.940 219.197,79.274 219.808,79.383 219.916 C 80.209 220.743,85.432 214.643,85.071 213.273 C 84.936 212.764,84.881 212.805,84.846 213.440 M182.524 214.714 C 181.739 214.796,180.770 215.337,180.002 216.124 L 178.754 217.400 169.277 217.637 L 159.800 217.873 169.275 217.837 L 178.749 217.800 179.875 216.752 C 183.879 213.023,186.073 217.963,182.153 221.883 C 181.649 222.387,181.392 222.800,181.583 222.800 C 182.992 222.800,185.062 218.104,184.594 215.971 C 184.293 214.602,184.191 214.540,182.524 214.714 M287.200 216.000 C 286.430 216.659,285.980 217.198,286.200 217.199 C 286.420 217.199,287.103 216.767,287.717 216.239 C 290.348 213.975,291.802 216.319,290.127 220.125 C 288.901 222.910,288.737 222.935,270.080 223.182 C 253.579 223.400,253.559 223.399,252.480 222.534 L 251.400 221.667 252.139 220.406 C 252.545 219.712,252.775 219.041,252.648 218.915 C 252.522 218.789,252.297 219.026,252.149 219.443 C 252.000 219.859,251.643 220.476,251.355 220.814 C 250.917 221.328,250.976 221.608,251.725 222.547 L 252.618 223.667 268.945 223.618 C 289.618 223.557,289.922 223.477,291.563 217.710 C 292.449 214.596,289.974 213.626,287.200 216.000 M362.282 216.069 C 361.904 217.505,360.212 219.456,358.295 220.666 C 357.431 221.211,356.815 221.748,356.925 221.858 C 357.716 222.649,362.993 217.039,362.712 215.706 C 362.602 215.182,362.491 215.276,362.282 216.069 M37.218 216.520 C 37.150 217.750,40.425 221.308,41.051 220.683 C 41.163 220.570,40.686 220.145,39.990 219.739 C 39.295 219.333,38.390 218.370,37.980 217.600 C 37.571 216.830,37.227 216.344,37.218 216.520 M49.000 217.581 C 49.768 217.929,51.910 218.156,51.567 217.853 C 51.475 217.772,50.680 217.596,49.800 217.462 C 48.685 217.293,48.442 217.329,49.000 217.581 M69.600 217.600 C 68.796 217.857,68.757 217.923,69.400 217.932 C 69.840 217.938,70.560 217.789,71.000 217.600 C 72.019 217.162,70.968 217.162,69.600 217.600 M333.000 217.581 C 333.768 217.929,335.910 218.156,335.567 217.853 C 335.475 217.772,334.680 217.596,333.800 217.462 C 332.685 217.293,332.442 217.329,333.000 217.581 M350.600 217.600 C 349.493 217.882,349.477 217.909,350.400 217.947 C 350.950 217.969,351.670 217.813,352.000 217.600 C 352.681 217.160,352.329 217.160,350.600 217.600 M54.000 218.460 C 56.864 218.800,63.656 218.802,66.200 218.465 C 67.300 218.319,64.510 218.200,60.000 218.200 C 55.477 218.200,52.786 218.317,54.000 218.460 M118.400 218.437 C 118.400 218.677,118.760 219.331,119.200 219.891 C 121.152 222.373,119.698 223.200,113.381 223.200 C 107.742 223.200,106.247 222.498,107.415 220.400 C 108.278 218.850,108.096 218.438,107.199 219.910 C 106.195 221.556,106.201 221.783,107.275 222.784 C 108.761 224.169,118.817 224.014,119.937 222.589 L 120.732 221.579 119.732 219.789 C 118.716 217.972,118.400 217.651,118.400 218.437 M339.297 218.548 C 341.280 218.745,344.137 218.745,345.897 218.548 C 348.649 218.239,348.254 218.200,342.400 218.200 C 336.244 218.200,336.035 218.223,339.297 218.548 M322.800 219.125 C 322.800 219.498,325.423 222.000,325.814 222.000 C 326.184 222.000,325.974 221.740,324.400 220.249 C 323.520 219.415,322.800 218.909,322.800 219.125 M76.400 221.000 C 75.410 221.530,74.780 221.964,75.000 221.964 C 75.220 221.964,76.210 221.530,77.200 221.000 C 78.190 220.470,78.820 220.036,78.600 220.036 C 78.380 220.036,77.390 220.470,76.400 221.000 M42.176 221.413 C 42.604 221.736,43.133 222.000,43.353 222.000 C 43.573 222.000,43.404 221.736,42.976 221.413 C 42.549 221.090,42.020 220.825,41.800 220.825 C 41.580 220.825,41.749 221.090,42.176 221.413 M144.822 221.200 C 144.816 221.530,145.034 222.227,145.306 222.748 L 145.800 223.696 162.244 223.628 C 171.288 223.591,179.160 223.435,179.738 223.280 C 180.315 223.126,172.956 223.055,163.384 223.121 L 145.979 223.243 145.405 221.921 C 145.090 221.195,144.827 220.870,144.822 221.200 M44.800 222.400 C 45.350 222.576,46.340 222.717,47.000 222.713 L 48.200 222.705 47.000 222.400 C 46.340 222.232,45.350 222.091,44.800 222.087 L 43.800 222.080 44.800 222.400 M72.000 222.400 L 71.000 222.720 72.000 222.732 C 72.550 222.738,73.360 222.589,73.800 222.400 L 74.600 222.056 73.800 222.068 C 73.360 222.074,72.550 222.224,72.000 222.400 M327.400 222.380 C 328.634 222.715,331.464 222.918,331.167 222.650 C 331.075 222.568,329.920 222.400,328.600 222.277 C 327.022 222.130,326.611 222.165,327.400 222.380 M354.400 222.400 C 353.596 222.657,353.557 222.723,354.200 222.732 C 354.640 222.738,355.360 222.589,355.800 222.400 C 356.819 221.962,355.768 221.962,354.400 222.400 M49.800 223.223 C 50.680 223.405,51.940 223.544,52.600 223.531 C 53.644 223.511,53.592 223.465,52.200 223.177 C 51.320 222.995,50.060 222.856,49.400 222.869 C 48.356 222.889,48.408 222.935,49.800 223.223 M67.200 223.200 L 65.800 223.495 67.200 223.500 C 67.970 223.503,69.140 223.368,69.800 223.200 L 71.000 222.895 69.800 222.900 C 69.140 222.903,67.970 223.038,67.200 223.200 M336.000 223.594 C 340.336 224.397,345.301 224.559,347.400 223.966 C 348.218 223.735,347.633 223.683,345.563 223.803 C 343.892 223.900,341.102 223.809,339.363 223.601 C 332.980 222.836,331.900 222.834,336.000 223.594 M349.800 223.200 L 348.600 223.505 349.800 223.513 C 350.460 223.517,351.450 223.376,352.000 223.200 L 353.000 222.880 352.000 222.887 C 351.450 222.891,350.460 223.032,349.800 223.200 M54.800 224.036 C 56.085 224.401,63.985 224.429,64.885 224.072 C 65.262 223.922,62.922 223.789,59.685 223.776 C 56.448 223.763,54.250 223.880,54.800 224.036 " stroke="none" fill="#89868c" fill-rule="evenodd"></path><path id="path4" d="M55.200 176.780 C 54.430 176.945,52.540 177.307,51.000 177.585 C 49.460 177.863,47.412 178.520,46.450 179.045 C 45.487 179.570,44.531 180.000,44.326 180.000 C 40.462 180.000,37.291 189.828,39.649 194.495 C 39.842 194.877,40.000 195.445,40.000 195.758 C 40.000 196.374,43.833 200.000,44.485 200.000 C 44.704 200.000,45.724 200.422,46.752 200.938 C 48.088 201.609,49.926 202.014,53.210 202.361 C 55.734 202.628,59.870 203.185,62.400 203.601 C 64.930 204.016,67.900 204.465,69.000 204.599 C 74.935 205.323,78.530 208.911,77.015 212.600 C 75.350 216.655,69.624 218.790,60.390 218.797 C 50.308 218.806,45.455 217.171,40.900 212.233 L 38.815 209.972 37.759 210.664 C 35.902 211.881,37.211 218.078,39.635 219.546 C 42.384 221.211,43.987 221.916,45.600 222.171 C 57.736 224.088,60.011 224.227,65.800 223.403 C 80.569 221.302,85.515 217.467,85.127 208.420 C 84.741 199.437,79.343 196.423,60.400 194.614 C 55.197 194.117,53.091 193.674,49.504 192.320 C 46.488 191.181,46.088 187.123,48.738 184.538 C 54.167 179.241,72.357 180.386,77.769 186.365 C 79.279 188.035,81.601 186.890,81.599 184.477 C 81.595 181.460,78.727 178.757,74.688 177.965 C 66.920 176.442,59.024 175.962,55.200 176.780 M305.403 177.197 C 303.877 178.883,303.858 188.619,305.375 191.552 C 306.307 193.353,309.068 193.282,309.951 191.434 C 311.471 188.248,312.000 185.926,312.000 182.439 L 312.000 178.858 310.509 177.629 C 308.706 176.143,306.524 175.958,305.403 177.197 M69.600 178.028 C 75.380 178.571,79.499 180.195,79.876 182.079 C 80.001 182.705,80.256 183.311,80.443 183.427 C 80.798 183.646,80.189 184.949,79.264 185.949 C 78.741 186.515,78.027 186.048,78.006 185.127 C 78.003 184.977,77.660 184.746,77.245 184.614 C 76.829 184.482,76.017 183.936,75.439 183.401 C 74.861 182.866,73.626 182.237,72.694 182.004 C 71.762 181.771,70.010 181.270,68.800 180.890 C 65.814 179.953,56.870 179.943,54.759 180.874 C 53.967 181.224,52.599 181.631,51.720 181.780 C 46.085 182.732,43.768 190.963,48.616 192.806 C 49.159 193.012,50.409 193.548,51.394 193.997 C 52.713 194.598,54.951 194.967,59.893 195.399 C 63.582 195.720,68.400 196.421,70.600 196.955 C 72.800 197.489,75.344 198.045,76.254 198.190 C 77.164 198.336,78.261 198.783,78.692 199.185 C 79.123 199.586,80.018 200.196,80.681 200.539 C 81.345 200.882,82.115 201.711,82.392 202.381 C 82.670 203.052,83.048 203.600,83.232 203.600 C 83.938 203.600,84.482 206.791,84.328 210.035 C 84.151 213.782,82.813 216.438,80.378 217.876 C 79.730 218.259,79.200 218.690,79.200 218.834 C 79.200 218.978,78.382 219.325,77.381 219.605 C 76.381 219.885,75.162 220.429,74.673 220.814 C 72.022 222.899,47.734 223.236,45.000 221.225 C 44.780 221.063,43.610 220.529,42.400 220.037 C 39.414 218.824,38.290 217.336,38.071 214.312 C 37.886 211.756,38.497 210.374,39.234 211.680 C 39.640 212.400,39.961 212.723,42.076 214.535 C 45.092 217.121,46.527 217.970,48.330 218.237 C 49.358 218.389,50.920 218.781,51.800 219.107 C 54.365 220.058,64.008 220.252,67.000 219.413 C 68.320 219.043,70.174 218.577,71.121 218.378 C 73.073 217.968,73.839 217.494,76.221 215.223 C 78.981 212.593,78.953 209.381,76.148 206.707 C 73.503 204.186,69.049 203.191,53.400 201.626 C 47.179 201.003,41.654 198.115,40.535 194.901 C 38.757 189.797,41.270 180.827,44.487 180.795 C 44.769 180.792,46.029 180.268,47.286 179.631 C 49.082 178.720,50.495 178.377,53.886 178.030 C 61.817 177.220,61.016 177.220,69.600 178.028 M309.566 177.976 C 311.313 179.220,311.815 181.368,311.079 184.444 C 309.308 191.836,309.110 192.219,307.273 191.816 C 305.619 191.453,305.498 191.004,305.291 184.481 C 305.063 177.272,306.183 175.567,309.566 177.976 M337.400 184.430 C 328.448 185.140,324.635 188.097,324.144 194.710 C 323.509 203.255,328.374 206.049,347.270 207.990 C 358.976 209.193,358.730 217.100,346.945 218.420 C 338.640 219.351,333.377 218.366,328.061 214.885 C 324.167 212.334,323.624 212.213,322.883 213.725 C 320.937 217.700,324.067 221.641,329.743 222.364 C 331.755 222.620,334.660 223.035,336.200 223.286 C 341.380 224.130,349.468 223.653,355.451 222.152 C 360.114 220.981,362.857 216.917,362.857 211.180 C 362.857 204.488,358.666 200.919,349.716 199.991 C 347.562 199.768,344.810 199.417,343.600 199.211 C 334.006 197.580,333.302 197.331,332.183 195.167 C 329.708 190.381,337.638 187.878,349.285 189.769 C 353.247 190.412,353.017 190.307,356.121 192.878 C 359.379 195.576,360.073 195.282,360.053 191.211 C 360.025 185.359,352.835 183.207,337.400 184.430 M94.688 185.275 C 92.816 185.783,91.817 187.734,92.217 190.100 C 92.615 192.457,93.540 192.691,96.668 191.227 C 100.121 189.611,106.527 189.391,107.838 190.844 C 109.074 192.213,108.977 216.915,107.725 219.666 L 106.875 221.531 107.763 222.366 C 108.562 223.115,109.136 223.200,113.437 223.200 C 119.796 223.200,121.155 222.376,119.100 219.764 C 118.217 218.643,118.198 218.383,118.076 206.211 C 117.907 189.213,117.584 190.000,124.720 190.000 C 128.533 190.000,130.060 190.273,132.565 191.401 C 135.687 192.807,136.890 187.159,133.800 185.604 C 132.323 184.860,97.298 184.565,94.688 185.275 M145.809 185.590 C 145.122 186.349,145.127 186.468,145.937 188.690 C 147.591 193.228,147.474 216.246,145.779 219.556 C 145.267 220.558,145.181 221.186,145.452 221.956 L 145.819 223.000 159.009 223.124 C 181.475 223.335,182.211 223.215,183.783 219.100 C 185.197 215.397,182.847 213.985,179.874 216.752 L 178.749 217.800 168.720 217.926 C 155.230 218.095,155.791 218.405,156.067 210.946 C 156.289 204.930,156.652 204.640,163.530 204.975 C 167.233 205.156,169.143 205.454,171.200 206.173 C 174.464 207.314,175.147 206.943,175.497 203.840 C 175.950 199.819,174.832 198.464,172.096 199.717 C 169.199 201.045,159.226 201.228,157.243 199.990 L 155.887 199.143 156.108 195.130 C 156.312 191.425,156.415 191.028,157.453 189.945 L 158.576 188.772 165.788 189.010 C 174.343 189.291,178.060 189.788,180.113 190.924 L 181.625 191.761 183.043 190.344 C 184.948 188.438,184.717 186.310,182.504 185.386 C 180.017 184.347,146.767 184.532,145.809 185.590 M190.700 185.357 C 189.609 186.185,191.330 189.769,193.796 191.801 C 194.064 192.022,194.667 192.955,195.136 193.874 C 195.605 194.794,196.174 195.660,196.400 195.800 C 196.626 195.940,197.176 196.717,197.622 197.527 C 198.067 198.337,198.885 199.630,199.440 200.400 C 199.994 201.170,200.751 202.227,201.123 202.750 C 201.496 203.272,202.430 204.583,203.200 205.663 C 207.106 211.141,211.565 217.740,212.381 219.250 C 214.755 223.641,217.460 223.453,220.312 218.700 C 220.675 218.095,221.109 217.600,221.276 217.600 C 221.443 217.600,221.866 217.046,222.216 216.369 C 222.742 215.352,224.466 212.856,225.925 211.000 C 226.098 210.780,228.560 207.090,231.397 202.800 C 234.234 198.510,236.659 194.910,236.787 194.800 C 236.914 194.690,237.341 194.093,237.736 193.474 C 238.130 192.854,238.702 192.044,239.006 191.674 C 244.506 184.967,244.516 185.053,238.264 184.887 C 233.067 184.748,231.405 185.327,231.881 187.113 C 232.341 188.833,232.100 190.345,231.114 191.925 C 230.611 192.730,230.020 193.691,229.800 194.061 C 229.216 195.043,224.489 202.130,224.105 202.600 C 223.925 202.820,222.723 204.503,221.434 206.339 C 219.195 209.529,219.034 209.667,217.845 209.438 C 216.651 209.208,214.806 207.469,214.802 206.570 C 214.801 206.333,214.350 205.717,213.800 205.200 C 213.250 204.683,212.800 204.091,212.800 203.884 C 212.800 203.677,212.170 202.649,211.400 201.600 C 210.630 200.551,210.000 199.569,210.000 199.418 C 210.000 199.109,206.495 194.089,205.709 193.272 C 205.430 192.982,205.111 192.307,205.001 191.772 C 204.890 191.237,204.714 190.380,204.609 189.866 C 204.504 189.352,204.591 188.328,204.803 187.591 C 205.527 185.064,204.842 184.798,197.638 184.813 C 193.086 184.822,191.211 184.969,190.700 185.357 M252.777 185.538 C 252.053 186.124,251.930 186.439,252.261 186.854 C 252.500 187.154,252.887 188.300,253.121 189.400 C 254.838 197.456,254.362 215.746,252.327 219.950 L 251.466 221.729 252.513 222.564 C 253.548 223.390,253.762 223.397,270.080 223.182 C 288.737 222.935,288.901 222.910,290.127 220.125 C 291.781 216.366,290.351 213.974,287.774 216.189 C 285.944 217.761,284.208 218.000,274.634 218.000 C 262.511 218.000,262.317 217.885,262.982 211.075 C 263.599 204.763,265.737 203.777,275.200 205.441 C 282.137 206.661,281.776 206.690,282.377 204.870 C 283.390 201.800,282.175 199.692,279.776 200.358 C 276.875 201.163,266.011 200.925,264.532 200.024 C 262.308 198.668,262.107 191.885,264.240 190.152 C 267.037 187.878,281.634 188.534,285.106 191.089 C 288.022 193.234,292.126 187.863,289.339 185.549 C 288.129 184.544,254.016 184.535,252.777 185.538 M355.200 185.966 C 357.948 186.863,359.306 188.473,359.341 190.875 C 359.381 193.706,359.048 194.185,357.811 193.074 C 354.482 190.084,353.420 189.573,348.800 188.741 C 343.667 187.816,337.098 188.198,333.184 189.650 C 332.608 189.864,331.746 190.800,331.193 191.814 L 330.217 193.600 331.186 195.374 C 332.758 198.252,335.993 199.327,346.269 200.390 C 350.756 200.854,353.895 201.365,354.469 201.726 C 354.981 202.048,356.053 202.518,356.852 202.771 C 357.650 203.023,359.090 203.988,360.052 204.915 L 361.800 206.600 361.800 211.440 C 361.800 216.571,361.804 216.559,359.400 218.841 C 355.558 222.489,347.320 223.479,333.000 222.014 C 325.299 221.226,322.255 218.744,323.504 214.271 L 323.819 213.143 324.810 213.904 C 325.354 214.323,326.565 215.089,327.500 215.606 C 328.435 216.124,329.200 216.672,329.200 216.825 C 329.200 217.815,338.263 219.985,342.400 219.985 C 345.979 219.985,352.464 218.574,354.244 217.408 C 357.175 215.487,357.066 210.675,354.054 209.020 C 351.720 207.738,350.839 207.508,347.000 207.172 C 342.959 206.819,342.162 206.689,335.072 205.215 C 330.983 204.365,329.940 203.975,328.600 202.796 C 328.160 202.409,327.401 201.971,326.912 201.823 C 324.999 201.243,324.398 192.498,326.100 189.994 C 327.124 188.487,331.222 186.125,333.733 185.595 C 336.074 185.100,353.468 185.401,355.200 185.966 M132.875 186.202 C 134.243 186.560,134.973 188.382,134.322 189.812 C 134.030 190.452,133.722 190.669,133.437 190.434 C 131.347 188.717,119.655 188.790,118.159 190.530 L 117.200 191.645 117.200 204.563 C 117.200 217.547,117.364 219.332,118.695 220.874 C 119.601 221.924,116.696 222.552,112.242 222.270 C 107.871 221.993,107.681 221.829,108.868 219.348 C 109.814 217.371,110.544 196.062,109.802 192.081 C 109.176 188.719,99.301 187.887,95.138 190.845 C 93.763 191.823,93.755 191.821,93.237 190.334 C 92.526 188.296,93.380 186.468,95.179 186.177 C 95.961 186.050,96.870 185.881,97.200 185.800 C 98.281 185.536,131.772 185.914,132.875 186.202 M179.587 185.947 C 182.073 186.190,182.188 186.250,182.538 187.477 C 183.081 189.378,182.084 190.268,180.073 189.678 C 178.238 189.139,175.500 188.452,173.385 188.001 C 172.497 187.811,168.741 187.606,165.040 187.545 L 158.310 187.435 156.755 189.102 L 155.200 190.769 155.200 195.155 C 155.200 199.475,155.217 199.554,156.300 200.362 C 156.905 200.814,157.760 201.527,158.200 201.947 C 158.889 202.604,159.306 202.665,161.200 202.384 C 162.410 202.205,164.446 202.045,165.725 202.029 C 167.809 202.003,170.573 201.384,173.092 200.380 C 174.624 199.769,175.406 202.633,174.344 204.963 C 173.897 205.944,173.859 205.952,172.444 205.350 C 168.287 203.583,156.676 203.990,155.632 205.940 C 154.892 207.323,155.069 216.993,155.846 217.639 C 158.646 219.962,180.476 219.171,181.294 216.717 C 181.396 216.412,181.736 216.636,182.164 217.288 C 183.037 218.622,182.340 221.091,180.938 221.623 C 179.567 222.145,146.834 222.194,146.315 221.675 C 146.003 221.363,146.069 220.954,146.549 220.222 C 148.332 217.500,148.646 191.493,146.937 188.073 L 146.074 186.347 146.937 185.999 C 147.917 185.604,175.631 185.559,179.587 185.947 M203.022 185.832 C 203.749 186.027,203.843 186.363,203.835 188.726 C 203.825 191.575,204.693 193.856,206.357 195.362 C 206.821 195.781,207.200 196.338,207.200 196.600 C 207.200 196.862,207.575 197.415,208.033 197.830 C 208.491 198.245,209.117 199.183,209.423 199.916 C 209.729 200.649,210.354 201.733,210.812 202.324 C 212.036 203.905,213.382 205.933,214.741 208.243 C 216.311 210.912,218.414 211.504,219.918 209.701 C 220.423 209.095,221.198 208.169,221.640 207.642 C 222.082 207.115,222.797 205.990,223.230 205.142 C 223.662 204.294,224.162 203.600,224.341 203.600 C 224.519 203.600,224.916 203.105,225.222 202.500 C 225.529 201.895,226.198 200.881,226.709 200.247 C 227.220 199.612,227.997 198.442,228.435 197.647 C 229.172 196.310,230.148 194.847,231.905 192.452 C 232.738 191.314,233.089 189.981,233.153 187.708 C 233.210 185.650,233.561 185.514,238.368 185.682 C 241.990 185.809,242.669 186.239,241.208 187.481 C 240.743 187.876,239.812 189.055,239.139 190.100 C 238.467 191.145,237.773 192.000,237.597 192.000 C 237.422 192.000,237.090 192.540,236.860 193.200 C 236.630 193.860,236.255 194.400,236.028 194.400 C 235.800 194.400,235.174 195.266,234.638 196.325 C 234.101 197.384,233.398 198.470,233.074 198.738 C 232.751 199.007,232.254 199.786,231.971 200.470 C 231.687 201.155,231.108 202.094,230.683 202.557 C 230.258 203.021,228.985 204.812,227.855 206.538 C 225.804 209.671,225.139 210.674,222.288 214.938 C 221.456 216.182,220.613 217.200,220.415 217.200 C 220.216 217.200,219.951 217.524,219.826 217.919 C 219.546 218.799,216.609 222.000,216.081 222.000 C 215.594 222.000,212.803 218.741,212.801 218.170 C 212.801 217.933,212.350 217.317,211.800 216.800 C 211.250 216.283,210.798 215.667,210.796 215.430 C 210.794 215.194,210.164 214.210,209.396 213.244 C 208.628 212.278,208.000 211.265,208.000 210.993 C 208.000 210.721,207.743 210.285,207.429 210.024 C 207.116 209.764,205.739 207.897,204.370 205.876 C 203.000 203.854,201.637 202.056,201.340 201.880 C 201.043 201.704,200.800 201.340,200.800 201.071 C 200.800 200.802,200.286 199.956,199.658 199.191 C 199.030 198.426,198.211 197.205,197.837 196.479 C 197.463 195.752,196.807 194.807,196.379 194.379 C 195.950 193.950,195.600 193.338,195.600 193.018 C 195.600 192.698,195.194 192.023,194.697 191.518 C 193.782 190.587,190.800 186.540,190.800 186.228 C 190.800 185.692,201.240 185.353,203.022 185.832 M287.400 185.928 C 289.787 186.348,290.041 188.889,287.790 189.830 C 286.848 190.224,286.165 190.306,285.865 190.062 C 281.772 186.733,265.842 186.402,263.000 189.586 C 261.037 191.785,261.856 200.336,264.096 201.019 C 264.593 201.171,265.286 201.545,265.636 201.851 C 266.311 202.442,273.888 202.407,279.047 201.790 L 281.494 201.497 281.676 202.739 C 281.999 204.934,281.968 204.941,273.925 204.460 C 262.956 203.805,262.398 204.146,262.074 211.704 C 261.775 218.678,261.982 218.805,273.600 218.776 C 283.510 218.752,287.443 218.368,288.186 217.352 C 288.899 216.376,289.360 216.875,289.360 218.622 C 289.360 221.844,289.778 221.767,270.689 222.054 C 251.183 222.347,252.190 222.532,253.858 218.963 L 254.961 216.600 254.936 203.800 C 254.913 191.934,254.851 190.841,254.096 188.828 C 253.648 187.633,253.372 186.418,253.483 186.128 C 253.706 185.548,284.219 185.368,287.400 185.928 M12.000 193.319 C 7.339 195.483,6.432 201.975,10.396 204.797 C 13.201 206.794,18.260 205.388,19.779 202.188 C 22.145 197.202,16.789 191.094,12.000 193.319 M384.200 193.185 C 379.515 195.145,378.549 202.357,382.648 204.775 C 387.712 207.763,392.275 204.408,392.041 197.869 C 391.935 194.924,387.037 191.999,384.200 193.185 M16.961 194.958 C 21.853 198.087,20.016 204.392,14.115 204.726 L 11.363 204.881 9.881 203.073 C 7.430 200.082,9.006 194.400,12.287 194.400 C 12.569 194.400,12.800 194.220,12.800 194.000 C 12.800 193.165,14.921 193.653,16.961 194.958 M388.199 194.400 C 391.019 196.142,392.486 200.165,390.955 201.955 C 388.481 204.846,388.561 204.800,385.972 204.800 C 379.917 204.800,378.700 197.689,384.183 194.345 C 385.739 193.396,386.595 193.408,388.199 194.400 " stroke="none" fill="#747474" fill-rule="evenodd"></path></g></svg>